<svg xmlns="http://www.w3.org/2000/svg" xmlns:xlink="http://www.w3.org/1999/xlink" version="1.1" x="0px" y="0px" viewBox="0 0 96 120" enable-background="new 0 0 96 96" xml:space="preserve"><path d="M87.954,46.177l-0.033-0.761l-7.283-2.3c-0.181-1.212-0.432-2.425-0.746-3.612l5.646-5.303l-0.063-0.167  c-0.99-2.653-2.266-5.207-3.787-7.591l-0.412-0.64l-7.457,1.649c-0.737-0.929-1.51-1.804-2.297-2.603l2.541-7.204l-0.588-0.482  c-2.188-1.812-4.567-3.387-7.072-4.684l-0.676-0.348l-5.633,5.158c-1.086-0.427-2.191-0.798-3.299-1.103l-1.402-7.507l-0.75-0.13  c-2.756-0.466-5.633-0.64-8.464-0.51l-0.759,0.035l-2.3,7.284c-1.153,0.171-2.297,0.403-3.408,0.689l-4.961-5.793l-0.713,0.266  c-2.652,0.99-5.207,2.265-7.591,3.789l-0.64,0.41l1.65,7.459c-0.931,0.741-1.806,1.514-2.604,2.298l-7.199-2.538l-0.486,0.584  c-1.811,2.188-3.386,4.568-4.684,7.073l-0.348,0.675l5.158,5.634c-0.428,1.085-0.798,2.193-1.104,3.299l-7.505,1.401l-0.13,0.75  c-0.469,2.779-0.64,5.626-0.508,8.463l0.034,0.765l7.283,2.3c0.171,1.152,0.403,2.299,0.69,3.408l-5.79,4.959l0.263,0.715  c0.99,2.651,2.265,5.205,3.788,7.59l0.411,0.644l7.46-1.65c0.739,0.931,1.511,1.804,2.296,2.603l-2.54,7.201l0.584,0.486  c2.196,1.814,4.576,3.391,7.073,4.682l0.676,0.351l5.637-5.159c1.084,0.43,2.191,0.798,3.295,1.104l1.402,7.513l0.75,0.125  c2.167,0.366,4.393,0.553,6.616,0.553c0.616,0,1.238-0.015,1.85-0.043l0.761-0.034l2.304-7.283c1.154-0.172,2.299-0.402,3.405-0.689  l4.962,5.796l0.712-0.271c2.656-0.991,5.212-2.268,7.593-3.787L70.2,81.28l-1.649-7.457c0.929-0.74,1.804-1.513,2.603-2.298  l7.203,2.539l0.483-0.586c1.816-2.196,3.392-4.578,4.683-7.071l0.35-0.677l-5.158-5.633c0.43-1.089,0.801-2.195,1.104-3.3  l7.51-1.401l0.127-0.75C87.915,51.862,88.086,49.016,87.954,46.177z M67.331,40.579c-1.59,1.59-3.704,2.465-5.952,2.465  c-1.26,0-2.517-0.286-3.647-0.828L42.217,57.729c1.55,3.227,0.904,7.062-1.637,9.602c-1.586,1.587-3.698,2.461-5.946,2.461  c-0.719,0-1.435-0.091-2.13-0.271L32.049,69.4l4.136-4.137c0.729-0.729,1.13-1.697,1.13-2.728c0-1.031-0.401-1.999-1.13-2.728  c-0.729-0.729-1.698-1.131-2.728-1.131c-1.031,0-1.998,0.4-2.727,1.131l-4.137,4.137l-0.118-0.456  c-0.747-2.884,0.092-5.978,2.189-8.074c1.59-1.59,3.703-2.466,5.952-2.466c1.26,0,2.517,0.285,3.649,0.828l15.511-15.512  c-1.549-3.226-0.902-7.061,1.639-9.601c1.586-1.587,3.697-2.461,5.945-2.461c0.719,0,1.436,0.091,2.13,0.271l0.456,0.118  l-4.139,4.137c-0.729,0.728-1.129,1.697-1.129,2.727c0,1.03,0.399,1.998,1.129,2.727c0.729,0.729,1.697,1.13,2.729,1.13  c1.029,0,1.999-0.401,2.729-1.13l4.137-4.137l0.119,0.457C70.267,35.389,69.427,38.482,67.331,40.579z"/><text x="0" y="111" fill="#000000" font-size="5px" font-weight="bold" font-family="'Helvetica Neue', Helvetica, Arial-Unicode, Arial, Sans-serif">Created by designvector</text><text x="0" y="116" fill="#000000" font-size="5px" font-weight="bold" font-family="'Helvetica Neue', Helvetica, Arial-Unicode, Arial, Sans-serif">from the Noun Project</text></svg>