<?xml version="1.0" encoding="utf-8"?>
<!-- Generator: Adobe Illustrator 17.1.0, SVG Export Plug-In . SVG Version: 6.00 Build 0)  -->
<!DOCTYPE svg PUBLIC "-//W3C//DTD SVG 1.1//EN" "http://www.w3.org/Graphics/SVG/1.1/DTD/svg11.dtd">
<svg version="1.1" id="Layer_1" xmlns="http://www.w3.org/2000/svg" xmlns:xlink="http://www.w3.org/1999/xlink" x="0px" y="0px"
	 viewBox="0 0 285 155" enable-background="new 0 0 285 155" xml:space="preserve">
<g transform="translate(0,-952.36218)">
	<linearGradient id="SVGID_1_" gradientUnits="userSpaceOnUse" x1="241.8716" y1="1040.7848" x2="241.8716" y2="1006.3887">
		<stop  offset="0" style="stop-color:#FAA436"/>
		<stop  offset="1" style="stop-color:#F26739"/>
	</linearGradient>
	<linearGradient id="SVGID_2_" gradientUnits="userSpaceOnUse" x1="241.8716" y1="1041.2848" x2="241.8716" y2="1005.8887">
		<stop  offset="0" style="stop-color:#FAA436"/>
		<stop  offset="1" style="stop-color:#F26739"/>
	</linearGradient>
	<path fill="url(#SVGID_1_)" stroke="url(#SVGID_2_)" stroke-miterlimit="10" d="M241.7,1006.4c0.9,0,1.8,0.6,2.4,1.2l20.3,28.5
		c0.3,0.6,0.6,1.2,0.6,1.8c0,1.8-1.2,2.9-2.9,2.9h-40.3c-1.8,0-2.9-1.2-2.9-2.9v-28.5c0-1.8,1.2-2.9,2.9-2.9H241.7z M224.7,1035.2
		h31.8l-16.2-22.6h-15.6C224.7,1012.2,224.7,1035.2,224.7,1035.2z"/>
	<linearGradient id="SVGID_3_" gradientUnits="userSpaceOnUse" x1="157.6987" y1="1106.8386" x2="157.6987" y2="954.3622">
		<stop  offset="0" style="stop-color:#FAA436"/>
		<stop  offset="1" style="stop-color:#F26739"/>
	</linearGradient>
	<linearGradient id="SVGID_4_" gradientUnits="userSpaceOnUse" x1="157.6987" y1="1107.3386" x2="157.6987" y2="953.8622">
		<stop  offset="0" style="stop-color:#FAA436"/>
		<stop  offset="1" style="stop-color:#F26739"/>
	</linearGradient>
	<path fill="url(#SVGID_3_)" stroke="url(#SVGID_4_)" stroke-miterlimit="10" d="M47.1,954.4h145.5c8.5,0,15.9,7.1,15.9,15.9v20.3
		h40.9c0.9,0,1.8,0.6,2.4,1.2l31.8,43.8c0.3,0.3,0.6,0.6,0.6,0.9l0,0l0,0c0,0,0,0,0,0.3c0,0.3,0.3,0.9,0,1.2v37.6
		c0,6.8-5.6,12.3-12.3,12.3h-4.7c-2.1,10.9-11.5,19.1-22.9,19.1c-11.5,0-21.2-8.2-22.9-19.1H113.5c-2.1,10.9-11.5,19.1-22.9,19.1
		s-20.9-8.2-22.9-19.1H47.1c-8.5,0-15.9-7.1-15.9-15.9v-102C31.2,961.4,38.3,954.4,47.1,954.4L47.1,954.4z M37.1,969.9v102
		c0,5.6,4.4,10,10,10h20.3c0.9-12.1,10.9-21.8,23.2-21.8s22.3,9.7,23.2,21.8h88.5v-112c0-5.6-4.4-10-10-10H47.1
		C41.5,960.2,37.1,964.6,37.1,969.9z M208.5,996.1v85.8h12.3c0.9-12.1,10.9-21.8,23.2-21.8c12.3,0,22.3,9.7,23.2,21.8h4.4
		c3.5,0,6.5-2.9,6.5-6.5v-37l-30.3-42.3H208.5L208.5,996.1z M90.6,1066.1c-9.7,0-17.3,7.9-17.3,17.6l0,0l0,0
		c0,9.7,7.9,17.3,17.3,17.3c9.7,0,17.3-7.6,17.3-17.1v-0.3C107.9,1074,100.3,1066.1,90.6,1066.1L90.6,1066.1z M226.4,1083.7
		c0,9.7,7.9,17.3,17.3,17.3c9.7,0,17.3-7.9,17.3-17.3c0-9.7-7.9-17.6-17.3-17.6C234.4,1066.1,226.4,1074,226.4,1083.7z"/>
	<linearGradient id="SVGID_5_" gradientUnits="userSpaceOnUse" x1="50.9157" y1="1041.9376" x2="50.9157" y2="1036.0769">
		<stop  offset="0" style="stop-color:#FAA436"/>
		<stop  offset="1" style="stop-color:#F26739"/>
	</linearGradient>
	<linearGradient id="SVGID_6_" gradientUnits="userSpaceOnUse" x1="50.9157" y1="1042.4376" x2="50.9157" y2="1035.5769">
		<stop  offset="0" style="stop-color:#FAA436"/>
		<stop  offset="1" style="stop-color:#F26739"/>
	</linearGradient>
	<path fill="url(#SVGID_5_)" stroke="url(#SVGID_6_)" stroke-miterlimit="10" d="M79.7,1036.1L79.7,1036.1c1.8,0,2.9,1.5,2.9,2.9
		c0,1.8-1.5,2.9-2.9,2.9H22.1l0,0c-1.8,0-2.9-1.5-2.9-2.9c0-1.8,1.5-2.9,2.9-2.9H79.7z"/>
	<linearGradient id="SVGID_7_" gradientUnits="userSpaceOnUse" x1="45.6314" y1="1054.8602" x2="45.6314" y2="1048.9994">
		<stop  offset="0" style="stop-color:#FAA436"/>
		<stop  offset="1" style="stop-color:#F26739"/>
	</linearGradient>
	<linearGradient id="SVGID_8_" gradientUnits="userSpaceOnUse" x1="45.6314" y1="1055.3602" x2="45.6314" y2="1048.4994">
		<stop  offset="0" style="stop-color:#FAA436"/>
		<stop  offset="1" style="stop-color:#F26739"/>
	</linearGradient>
	<path fill="url(#SVGID_7_)" stroke="url(#SVGID_8_)" stroke-miterlimit="10" d="M87.7,1049L87.7,1049c1.8,0,2.9,1.5,2.9,2.9
		c0,1.8-1.5,2.9-2.9,2.9H3.6l0,0c-1.8,0-2.9-1.5-2.9-2.9c0-1.8,1.5-2.9,2.9-2.9H87.7z"/>
</g>
<linearGradient id="SVGID_9_" gradientUnits="userSpaceOnUse" x1="72.2211" y1="66.9308" x2="72.2211" y2="31.574">
	<stop  offset="0" style="stop-color:#FAA436"/>
	<stop  offset="1" style="stop-color:#F26739"/>
</linearGradient>
<linearGradient id="SVGID_10_" gradientUnits="userSpaceOnUse" x1="72.2451" y1="67.4308" x2="72.2451" y2="31.074">
	<stop  offset="0" style="stop-color:#FAA436"/>
	<stop  offset="1" style="stop-color:#F26739"/>
</linearGradient>
<path fill="url(#SVGID_9_)" stroke="url(#SVGID_10_)" stroke-miterlimit="10" d="M61.8,31.6h20.9v6.2H69.5v9.1h10.3v6.2H69.5v13.8
	h-7.6L61.8,31.6L61.8,31.6z"/>
<linearGradient id="SVGID_11_" gradientUnits="userSpaceOnUse" x1="103.5186" y1="66.5465" x2="103.5186" y2="31.574">
	<stop  offset="0" style="stop-color:#FAA436"/>
	<stop  offset="1" style="stop-color:#F26739"/>
</linearGradient>
<linearGradient id="SVGID_12_" gradientUnits="userSpaceOnUse" x1="103.6464" y1="67.0465" x2="103.6464" y2="31.074">
	<stop  offset="0" style="stop-color:#FAA436"/>
	<stop  offset="1" style="stop-color:#F26739"/>
</linearGradient>
<path fill="url(#SVGID_11_)" stroke="url(#SVGID_12_)" stroke-miterlimit="10" d="M91.2,31.6h11.2c2.1,0,3.8,0,5,0.3
	c1.2,0.3,2.4,0.6,3.5,1.5s2.1,2.1,2.6,3.5c0.6,1.5,0.9,3.2,0.9,5c0,4.4-1.8,7.6-5,9.4l6.5,15.3h-8.5l-4.7-13.8h-3.8v13.8h-7.6
	L91.2,31.6L91.2,31.6z M98.8,37.1v10h3.5c2.9,0,4.4-1.8,4.4-5c0-1.2-0.3-2.1-0.6-2.9c-0.3-0.9-0.9-1.2-1.5-1.5
	c-0.6-0.3-1.5-0.3-2.6-0.3h-3.2V37.1z"/>
<linearGradient id="SVGID_13_" gradientUnits="userSpaceOnUse" x1="135.1525" y1="67.171" x2="135.1525" y2="31.574">
	<stop  offset="0" style="stop-color:#FAA436"/>
	<stop  offset="1" style="stop-color:#F26739"/>
</linearGradient>
<linearGradient id="SVGID_14_" gradientUnits="userSpaceOnUse" x1="135.1525" y1="67.671" x2="135.1525" y2="31.074">
	<stop  offset="0" style="stop-color:#FAA436"/>
	<stop  offset="1" style="stop-color:#F26739"/>
</linearGradient>
<path fill="url(#SVGID_13_)" stroke="url(#SVGID_14_)" stroke-miterlimit="10" d="M124.4,31.6h21.5v6.2h-13.8V46h10.6v6.1h-10.6V61
	h13.8v6.2h-21.5V31.6z"/>
<linearGradient id="SVGID_15_" gradientUnits="userSpaceOnUse" x1="164.8407" y1="67.171" x2="164.8407" y2="31.574">
	<stop  offset="0" style="stop-color:#FAA436"/>
	<stop  offset="1" style="stop-color:#F26739"/>
</linearGradient>
<linearGradient id="SVGID_16_" gradientUnits="userSpaceOnUse" x1="164.8407" y1="67.671" x2="164.8407" y2="31.074">
	<stop  offset="0" style="stop-color:#FAA436"/>
	<stop  offset="1" style="stop-color:#F26739"/>
</linearGradient>
<path fill="url(#SVGID_15_)" stroke="url(#SVGID_16_)" stroke-miterlimit="10" d="M154.1,31.6h21.5v6.2h-13.8V46h10.6v6.1h-10.6V61
	h13.8v6.2h-21.5L154.1,31.6L154.1,31.6z"/>
<linearGradient id="SVGID_17_" gradientUnits="userSpaceOnUse" x1="90.5961" y1="138.3171" x2="90.5961" y2="124.1936">
	<stop  offset="0" style="stop-color:#FAA436"/>
	<stop  offset="1" style="stop-color:#F26739"/>
</linearGradient>
<linearGradient id="SVGID_18_" gradientUnits="userSpaceOnUse" x1="90.5961" y1="138.8171" x2="90.5961" y2="123.6936">
	<stop  offset="0" style="stop-color:#FAA436"/>
	<stop  offset="1" style="stop-color:#F26739"/>
</linearGradient>
<circle fill="url(#SVGID_17_)" stroke="url(#SVGID_18_)" stroke-miterlimit="10" cx="90.6" cy="131.3" r="7.1"/>
<linearGradient id="SVGID_19_" gradientUnits="userSpaceOnUse" x1="244.0814" y1="138.3171" x2="244.0814" y2="124.1936">
	<stop  offset="0" style="stop-color:#FAA436"/>
	<stop  offset="1" style="stop-color:#F26739"/>
</linearGradient>
<linearGradient id="SVGID_20_" gradientUnits="userSpaceOnUse" x1="244.0814" y1="138.8171" x2="244.0814" y2="123.6936">
	<stop  offset="0" style="stop-color:#FAA436"/>
	<stop  offset="1" style="stop-color:#F26739"/>
</linearGradient>
<circle fill="url(#SVGID_19_)" stroke="url(#SVGID_20_)" stroke-miterlimit="10" cx="244.1" cy="131.3" r="7.1"/>
<linearGradient id="SVGID_21_" gradientUnits="userSpaceOnUse" x1="161.7422" y1="120.0622" x2="161.7422" y2="114.2014">
	<stop  offset="0" style="stop-color:#FAA436"/>
	<stop  offset="1" style="stop-color:#F26739"/>
</linearGradient>
<linearGradient id="SVGID_22_" gradientUnits="userSpaceOnUse" x1="161.7422" y1="120.5622" x2="161.7422" y2="113.7014">
	<stop  offset="0" style="stop-color:#FAA436"/>
	<stop  offset="1" style="stop-color:#F26739"/>
</linearGradient>
<path fill="url(#SVGID_21_)" stroke="url(#SVGID_22_)" stroke-miterlimit="10" d="M203.8,114.2L203.8,114.2c1.8,0,2.9,1.5,2.9,2.9
	c0,1.8-1.5,2.9-2.9,2.9h-84.1l0,0c-1.8,0-2.9-1.5-2.9-2.9c0-1.8,1.5-2.9,2.9-2.9H203.8z"/>
</svg>
