<?xml version="1.0" encoding="utf-8"?>
<!-- Generator: Adobe Illustrator 19.2.0, SVG Export Plug-In . SVG Version: 6.00 Build 0)  -->
<svg version="1.1" id="Слой_1" xmlns="http://www.w3.org/2000/svg" xmlns:xlink="http://www.w3.org/1999/xlink" x="0px" y="0px"
	 viewBox="0 0 40 52" style="enable-background:new 0 0 40 52;" xml:space="preserve">
<style type="text/css">
	.st0{fill:#FFFFFF;}
</style>
<g>
	<g>
		<g>
			<g>
				<path class="st0" d="M20,1C9.7,1,1.3,9.4,1.3,19.7c0,10.1,17.3,30.1,18,30.9c0.2,0.2,0.5,0.4,0.8,0.4c0.3,0,0.6-0.1,0.8-0.4
					c0.7-0.8,18-20.8,18-30.9C38.8,9.4,30.3,1,20,1z M29.3,19.7c0,5.1-4.1,9.3-9.2,9.3H20c-2.5,0-4.8-1-6.5-2.7
					c-1.8-1.8-2.8-4.1-2.8-6.6c0-5.1,4.1-9.4,9.2-9.4c2.5,0,4.8,0.9,6.6,2.7C28.3,14.8,29.3,17.2,29.3,19.7L29.3,19.7z"/>
			</g>
		</g>
	</g>
</g>
</svg>
