<?xml version="1.0" encoding="utf-8"?>
<!-- Generator: Adobe Illustrator 19.2.0, SVG Export Plug-In . SVG Version: 6.00 Build 0)  -->
<svg version="1.1" id="Слой_1" xmlns="http://www.w3.org/2000/svg" xmlns:xlink="http://www.w3.org/1999/xlink" x="0px" y="0px"
	 viewBox="0 0 52 52" style="enable-background:new 0 0 52 52;" xml:space="preserve">
<style type="text/css">
	.st0{fill:#FFFFFF;}
</style>
<path class="st0" d="M26,0C11.7,0,0,11.7,0,26s11.7,26,26,26s26-11.7,26-26S40.3,0,26,0z M43,38l-2.4,2.4c-0.2,0.2-0.3,0.3-0.5,0.4
	c-3.1,2.8-7.6,3.5-11.3,1.9c0,0,0,0,0,0c-2.1-0.5-6.6-3.8-11.2-8.4c-4.6-4.6-7.9-9.1-8.4-11.2c0,0,0,0,0,0
	c-1.5-3.7-0.9-8.2,1.9-11.3c0.1-0.2,0.3-0.3,0.4-0.5L14,9c0.8-0.8,1.9-0.7,2.5,0.2l3.7,5.3c0.6,0.9,0.5,2.2-0.2,2.9
	c0,0,0,0.1-0.1,0.1L17.5,20c-0.6,0.6-0.9,1.3-0.9,2c0,0.1,0,0.2,0,0.3c0,1.3,2.2,4.5,5.4,7.7c3.5,3.5,6.9,5.7,8,5.3
	c0.7,0,1.5-0.3,2-0.9l2.5-2.5c0,0,0.1-0.1,0.1-0.1c0.8-0.7,2.1-0.8,2.9-0.2l5.3,3.7C43.7,36.1,43.8,37.2,43,38z"/>
</svg>
