<?xml version="1.0" encoding="utf-8"?>
<!-- Generator: Adobe Illustrator 17.1.0, SVG Export Plug-In . SVG Version: 6.00 Build 0)  -->
<!DOCTYPE svg PUBLIC "-//W3C//DTD SVG 1.1//EN" "http://www.w3.org/Graphics/SVG/1.1/DTD/svg11.dtd">
<svg version="1.1" id="Layer_1" xmlns="http://www.w3.org/2000/svg" xmlns:xlink="http://www.w3.org/1999/xlink" x="0px" y="0px"
	 viewBox="75 0 226 226" enable-background="new 75 0 226 226" xml:space="preserve">
<g id="Layer_2">
	<circle fill="#FFFFFF" stroke="#000000" stroke-miterlimit="10" cx="188" cy="117.4" r="91"/>
</g>
<g id="Capa_1">
	<g>
		<g>
			<path fill="#808080" d="M188,93.6c10.9,0,19.4-8.8,19.4-19.4c0-10.9-8.6-19.4-19.4-19.4s-19.6,8.8-19.4,19.6
				C168.6,85,177.1,93.6,188,93.6z"/>
			<path fill="#808080" d="M188,0C125.6,0,75,50.6,75,113s50.6,113,113,113s113-50.6,113-113S250.4,0,188,0z M188,34.4
				c22,0,39.7,18,39.5,40.2c0,21.7-18,39.3-40,39.3c-21.7,0-39.5-18-39.5-40C148.3,52,166,34.2,188,34.4z M232.6,129.6
				c-4.9,5.1-10.6,8.6-17.3,11.1c-6.2,2.3-12.9,3.5-19.6,4.4c0.9,1.2,1.4,1.6,2.1,2.3c9,9,18.3,18.3,27.3,27.3c3,3,3.7,6.9,2.1,10.6
				c-1.8,3.9-6,6.5-10.2,6.2c-2.5-0.2-4.6-1.4-6.5-3.2c-6.9-6.9-13.9-13.6-20.6-20.6c-1.8-2.1-2.8-1.6-4.6,0.2
				c-6.9,7.2-13.9,14.1-20.8,21c-3.2,3-6.9,3.7-10.6,1.8c-3.9-1.8-6.5-5.8-6.2-9.9c0.2-2.8,1.4-4.9,3.2-6.7c9-9,17.8-18,26.8-26.8
				c0.7-0.7,1.2-1.2,2.1-2.1c-12.2-1.4-23.1-4.2-32.6-11.6c-1.2-0.9-2.3-1.8-3.5-2.8c-4.2-3.9-4.6-8.6-1.4-13.2
				c2.8-3.9,7.4-5.1,12.2-2.8c0.9,0.5,1.8,0.9,2.8,1.6c17.6,12,41.6,12.5,59.2,0.5c1.8-1.4,3.7-2.3,5.8-3c4.2-1.2,8.1,0.5,10.4,4.2
				C235.8,122.2,235.8,126.2,232.6,129.6z"/>
		</g>
	</g>
</g>
</svg>
