<?xml version="1.0" encoding="utf-8"?>
<!-- Generator: Adobe Illustrator 17.1.0, SVG Export Plug-In . SVG Version: 6.00 Build 0)  -->
<!DOCTYPE svg PUBLIC "-//W3C//DTD SVG 1.1//EN" "http://www.w3.org/Graphics/SVG/1.1/DTD/svg11.dtd">
<svg version="1.1" id="Capa_1" xmlns="http://www.w3.org/2000/svg" xmlns:xlink="http://www.w3.org/1999/xlink" x="0px" y="0px"
	 viewBox="78 0 226 226" enable-background="new 78 0 226 226" xml:space="preserve">
<g>
	<circle fill="#808080" cx="191" cy="113" r="113"/>
	<g>
		<path fill="#FFFFFF" d="M260.2,81.2c-4.8,2.1-10.1,3.6-15.5,4.2c5.6-3.3,9.9-8.6,11.9-14.9c-5.2,3.1-11,5.3-17.2,6.6
			c-4.9-5.2-11.9-8.5-19.7-8.5c-14.9,0-27,12.1-27,27c0,2.1,0.2,4.2,0.7,6.2c-22.4-1.1-42.4-11.9-55.7-28.2c-2.3,4-3.7,8.6-3.7,13.6
			c0,9.4,4.8,17.6,12,22.5c-4.4-0.1-8.6-1.4-12.2-3.4c0,0.1,0,0.2,0,0.3c0,13.1,9.3,24,21.7,26.5c-2.3,0.6-4.7,0.9-7.1,0.9
			c-1.7,0-3.4-0.2-5.1-0.5c3.4,10.7,13.4,18.5,25.2,18.8c-9.2,7.2-20.9,11.6-33.5,11.6c-2.2,0-4.3-0.1-6.4-0.4
			c11.9,7.7,26.1,12.1,41.4,12.1c49.7,0,76.9-41.2,76.9-76.9c0-1.2,0-2.3-0.1-3.5C252,91.4,256.6,86.6,260.2,81.2L260.2,81.2z"/>
	</g>
</g>
</svg>
