<?xml version="1.0" encoding="utf-8"?>
<!-- Generator: Adobe Illustrator 17.1.0, SVG Export Plug-In . SVG Version: 6.00 Build 0)  -->
<!DOCTYPE svg PUBLIC "-//W3C//DTD SVG 1.1//EN" "http://www.w3.org/Graphics/SVG/1.1/DTD/svg11.dtd">
<svg version="1.1" id="Layer_1" xmlns="http://www.w3.org/2000/svg" xmlns:xlink="http://www.w3.org/1999/xlink" x="0px" y="0px"
	 viewBox="83 0 225.8 226" enable-background="new 83 0 225.8 226" xml:space="preserve">
<circle fill="#808080" cx="196" cy="113" r="113"/>
<g>
	<path fill="#FFFFFF" d="M277,73.4L277,73.4c-4-16.6-22.5-34.4-39.4-38.1h-0.1c-27.4-5.3-55.2-5.3-82.6,0h-0.1
		c-16.9,3.7-35.4,21.4-39.5,38v0.1c-5,23.1-5,46.5,0,69.7v0.1c3.9,15.9,21,32.8,37.3,37.4V199c0,6.6,8.1,10,12.7,5.2l18.7-19.4
		c4.1,0.3,8.1,0.4,12.2,0.4c13.8,0,27.7-1.4,41.4-3.9h0.1c16.9-3.7,35.4-21.4,39.5-38v-0.1C282,120.1,282,96.6,277,73.4z
		 M262.3,139.7c-2.7,10.8-16.8,24.3-27.9,26.7c-14.6,2.7-29.3,3.9-43.9,3.5c-0.3,0-0.5,0.1-0.8,0.3c-2,2.2-13.7,14-13.7,14
		l-14.5,14.9c-1.1,1.1-3,0.4-3-1.2v-30.6c0-0.5-0.4-0.9-0.8-1.1l0,0c-11.1-2.4-25.1-15.9-27.9-26.7c-4.6-20.9-4.6-42,0-62.9
		c2.7-10.8,16.8-24.3,27.9-26.7c25.5-4.9,51.3-4.9,76.7,0c11.1,2.4,25.1,15.9,27.9,26.7C266.7,97.7,266.7,118.9,262.3,139.7z"/>
	<path fill="#FFFFFF" d="M220.2,153.9c-1.8-0.5-3.4-0.8-4.9-1.5c-15.7-6.5-30.1-14.9-41.6-27.8c-6.5-7.3-11.7-15.6-15.9-24.4
		c-2-4.2-3.8-8.4-5.6-12.7c-1.6-3.9,0.8-8,3.3-10.8c2.3-2.7,5.3-4.9,8.5-6.4c2.6-1.2,5-0.5,6.9,1.6c3.9,4.6,7.7,9.5,10.6,14.9
		c1.8,3.3,1.4,7.3-2,9.6c-0.8,0.5-1.5,1.2-2.3,1.8c-0.7,0.5-1.2,1.1-1.8,1.8c-0.8,1.4-0.8,3-0.3,4.3c4.1,11.3,11,19.9,22.2,24.7
		c1.8,0.8,3.7,1.6,5.7,1.4c3.5-0.4,4.6-4.2,7.1-6.2c2.4-1.9,5.4-2,8-0.4s5,3.4,7.6,5.2c2.4,1.8,4.9,3.4,7.1,5.4
		c2.2,1.9,2.8,4.3,1.6,6.9c-2.2,4.7-5.4,8.7-10.2,11.1C223.2,153.2,221.7,153.4,220.2,153.9C218.5,153.4,221.7,153.4,220.2,153.9z"
		/>
	<path fill="#FFFFFF" d="M195.9,64.8c20.5,0.5,37.4,14.2,40.9,34.4c0.7,3.5,0.8,7.1,1.1,10.4c0.1,1.5-0.7,2.8-2.3,2.8
		s-2.4-1.4-2.4-2.8c-0.3-3-0.4-5.8-0.8-8.8c-2.2-15.3-14.4-27.9-29.6-30.6c-2.3-0.4-4.6-0.5-6.9-0.8c-1.5-0.1-3.4-0.3-3.7-2
		c-0.3-1.5,1.1-2.7,2.4-2.8C195.1,64.8,195.5,64.8,195.9,64.8C216.6,65.3,195.5,64.8,195.9,64.8z"/>
	<path fill="#FFFFFF" d="M227.1,105.3c0,0.3,0,0.8-0.1,1.5c-0.5,2-3.7,2.3-4.3,0.3c-0.3-0.7-0.3-1.4-0.3-2c0-4.3-0.9-8.7-3.1-12.5
		c-2.3-3.9-5.7-7.2-9.8-9.1c-2.4-1.2-5-1.9-7.7-2.4c-1.2-0.1-2.3-0.3-3.5-0.5c-1.5-0.1-2.2-1.1-2.2-2.6c0-1.4,1.1-2.3,2.4-2.2
		c4.7,0.3,9.2,1.2,13.4,3.5c8.5,4.5,13.4,11.7,14.8,21.2c0,0.4,0.1,0.8,0.1,1.4C227,102.7,227.1,103.8,227.1,105.3
		C227.1,105.4,227.1,103.8,227.1,105.3z"/>
	<path fill="#FFFFFF" d="M214.4,104.8c-1.8,0-2.6-0.9-2.8-2.4c-0.1-1.1-0.3-2.2-0.5-3.3c-0.5-2.2-1.6-4.1-3.4-5.3
		c-0.8-0.5-1.8-1.1-2.7-1.4c-1.2-0.4-2.6-0.3-3.8-0.5c-1.4-0.3-2.2-1.5-1.9-2.7c0.1-1.2,1.4-2,2.6-2c8,0.5,13.7,4.7,14.5,14.1
		c0,0.7,0.1,1.4,0,2C216,104.2,215.2,104.8,214.4,104.8C212.8,104.8,215.2,104.8,214.4,104.8z"/>
</g>
</svg>
