<?xml version="1.0" encoding="utf-8"?>
<!-- Generator: Adobe Illustrator 17.1.0, SVG Export Plug-In . SVG Version: 6.00 Build 0)  -->
<!DOCTYPE svg PUBLIC "-//W3C//DTD SVG 1.1//EN" "http://www.w3.org/Graphics/SVG/1.1/DTD/svg11.dtd">
<svg version="1.1" id="Capa_1" xmlns="http://www.w3.org/2000/svg" xmlns:xlink="http://www.w3.org/1999/xlink" x="0px" y="0px"
	 viewBox="75 0 226 226" enable-background="new 75 0 226 226" xml:space="preserve">
<g>
	<g>
		<circle id="XMLID_11_" fill="#808080" cx="188" cy="113" r="113"/>
	</g>
	<path fill="#FFFFFF" d="M183.7,162.6h8.9c0,0,2.7-0.3,4-1.8c1.3-1.4,1.2-3.9,1.2-3.9s-0.2-11.9,5.4-13.7
		c5.4-1.7,12.4,11.5,19.8,16.6c5.6,3.8,9.9,3,9.9,3l19.8-0.3c0,0,10.4-0.6,5.5-8.8c-0.4-0.7-2.9-6-14.7-17
		c-12.4-11.5-10.8-9.7,4.2-29.6c9.1-12.1,12.8-19.6,11.6-22.7c-1.1-3-7.8-2.2-7.8-2.2l-22.3,0.1c0,0-1.7-0.2-2.9,0.5
		c-1.2,0.7-2,2.4-2,2.4s-3.5,9.4-8.2,17.4c-9.9,16.9-13.9,17.8-15.5,16.7c-3.8-2.4-2.8-9.8-2.8-15c0-16.3,2.5-23.2-4.8-24.9
		c-2.4-0.6-4.2-1-10.4-1c-8-0.1-14.7,0-18.5,1.9c-2.5,1.2-4.5,4-3.3,4.2c1.5,0.2,4.8,0.9,6.6,3.3c2.3,3.1,2.2,10.1,2.2,10.1
		s1.3,19.2-3.1,21.6c-3,1.6-7.1-1.7-16-17c-4.5-7.8-8-16.5-8-16.5s-0.7-1.6-1.8-2.5c-1.4-1-3.4-1.4-3.4-1.4L116,82.1
		c0,0-3.2,0.1-4.4,1.5c-1,1.2-0.1,3.8-0.1,3.8s16.6,38.8,35.4,58.4C164.2,163.7,183.7,162.6,183.7,162.6L183.7,162.6z"/>
</g>
</svg>
