<svg width="19" height="19" viewBox="0 0 19 19" fill="none" xmlns="http://www.w3.org/2000/svg">
<path fill-rule="evenodd" clip-rule="evenodd" d="M11.5304 9.00541L17.948 2.58774C18.5388 1.99699 18.5388 1.03919 17.948 0.448521C17.3573 -0.142233 16.3996 -0.142233 15.8088 0.448521L9.39108 6.86628L2.97334 0.448437C2.38258 -0.142317 1.42487 -0.142317 0.834115 0.448437C0.243446 1.03919 0.243446 1.99699 0.834115 2.58766L7.25186 9.00533L0.834115 15.4231C0.243446 16.0138 0.243446 16.9716 0.834115 17.5623C1.42487 18.1531 2.38258 18.1531 2.97334 17.5623L9.39108 11.1446L15.8088 17.5623C16.3995 18.1531 17.3573 18.1531 17.948 17.5623C18.5388 16.9716 18.5388 16.0138 17.948 15.4231L11.5304 9.00541Z" fill="#F32619"/>
</svg>
