<?xml version="1.0" encoding="utf-8"?>
<!-- Generator: Adobe Illustrator 17.1.0, SVG Export Plug-In . SVG Version: 6.00 Build 0)  -->
<!DOCTYPE svg PUBLIC "-//W3C//DTD SVG 1.1//EN" "http://www.w3.org/Graphics/SVG/1.1/DTD/svg11.dtd">
<svg version="1.1" id="Layer_1" xmlns="http://www.w3.org/2000/svg" xmlns:xlink="http://www.w3.org/1999/xlink" x="0px" y="0px"
	 viewBox="0 0 120 105" enable-background="new 0 0 120 105" xml:space="preserve">
<linearGradient id="SVGID_1_" gradientUnits="userSpaceOnUse" x1="60.1821" y1="103.8943" x2="60.1821" y2="2">
	<stop  offset="0" style="stop-color:#FAA436"/>
	<stop  offset="1" style="stop-color:#F26739"/>
</linearGradient>
<linearGradient id="SVGID_2_" gradientUnits="userSpaceOnUse" x1="60.1821" y1="104.3943" x2="60.1821" y2="1.5">
	<stop  offset="0" style="stop-color:#FAA436"/>
	<stop  offset="1" style="stop-color:#F26739"/>
</linearGradient>
<path fill="url(#SVGID_1_)" stroke="url(#SVGID_2_)" stroke-miterlimit="10" d="M114.2,13.5h-10.2c-0.3-6.1-3.2-8.9-5.7-10.2
	c-8.3-4.2-22.3,2.4-29,7c-1.9-1.3-4.2-2-6.8-2h-4.9c-2.6,0-5.1,0.8-7.1,2.3C44,6,29.6-0.9,21.3,3.3c-2.5,1.3-5.5,4.1-5.7,10.2H6.1
	c-2.8,0-5.1,2.3-5.1,5.2v21.7c0,2.8,2.3,5.1,5.1,5.1h4.1v54.1c0,2.4,1.9,4.3,4.3,4.3h32.8H73h32.8c2.4,0,4.3-1.9,4.3-4.3V45.5h4.1
	c2.8,0,5.1-2.3,5.1-5.1V18.7C119.4,15.8,117.1,13.5,114.2,13.5z M68.8,51.4c-2.4-4.5-4.7-8.8-5.7-12.2C63,39,63,38.8,62.9,38.6
	c2.8-0.1,5.4-1.1,7.4-2.7c1.6,1.2,3.5,2.5,5.6,3.7c2,1.7,4.1,3.6,6.1,5.8c4.5,4.7,6.3,8,6.7,9.3c-0.6,0.1-1.3,0.2-2,0.2l0,0
	c-1.1,0-1.9-0.2-1.9-0.2c-0.6-0.2-1.3-0.3-1.9-0.3c-3.5,0-6.1,2.6-6.3,6.2c-0.1,2.1-0.4,4.2-0.7,5.8c0-0.1-0.1-0.2-0.1-0.4
	C74,61,71.3,55.9,68.8,51.4z M51.7,51.4c-2.4,4.5-5.1,9.6-7.1,14.7c0,0.1-0.1,0.3-0.1,0.4c-0.3-1.6-0.6-3.7-0.7-5.8
	c-0.2-3.6-2.9-6.2-6.3-6.2c-0.6,0-1.2,0.1-1.9,0.3c0,0-0.8,0.2-1.9,0.2c-0.7,0-1.4-0.1-2-0.2c0.4-1.4,2.2-4.6,6.7-9.3
	c3.8-4.1,8-7.5,11.5-9.6c2.1,1.8,4.8,2.8,7.8,2.8c0,0.2-0.1,0.4-0.2,0.6C56.4,42.5,54.1,46.8,51.7,51.4z M96.4,7.3
	c2.3,1.2,3.4,3.6,3.3,7.5v0v0c0,1.6-0.4,3.3-0.7,5c-0.4,1.8-0.7,3.6-0.8,5.5c-0.1,1.6,0.2,3.3,0.5,5.1c0.5,3.2,1,6.6-0.7,8.4
	c-3.6,3.8-12.2,1.3-19.5-2.9c-1.5-1.3-3.3-2.6-5.1-3.7c1-1.8,1.6-3.8,1.6-6v-5.5c0-2.7-0.9-5.2-2.3-7.2C79.8,8.8,91,4.6,96.4,7.3z
	 M49.8,20.7c0-4.4,3.6-7.9,7.9-7.9h4.9c4.4,0,7.9,3.6,7.9,7.9v5.5c0,4.4-3.6,7.9-7.9,7.9h-4.9c-4.4,0-7.9-3.6-7.9-7.9V20.7
	L49.8,20.7z M23.3,7.3c5.5-2.8,17.1,1.7,24.2,6.5c-1.4,2-2.1,4.3-2.1,6.9v5.5c0,2.1,0.5,4.1,1.5,5.9c-7.8,6-20.6,11.6-25.3,6.7
	c-1.7-1.8-1.2-5.1-0.7-8.4c0.3-1.8,0.5-3.5,0.5-5.1c-0.1-1.9-0.4-3.7-0.8-5.5c-0.3-1.7-0.6-3.3-0.7-5v0v0l0,0
	C19.9,10.9,21,8.4,23.3,7.3z M6.2,41.1c-0.4,0-0.7-0.4-0.7-0.7V18.7c0-0.4,0.4-0.7,0.7-0.7h9.6c0.1,0.9,0.3,1.8,0.5,2.7
	c0.3,1.7,0.6,3.2,0.7,4.8c0,1.2-0.2,2.7-0.4,4.3c-0.6,3.6-1.3,8,1.2,11.4h-3.1L6.2,41.1L6.2,41.1z M14.7,99.5v-54h17.6
	c-2.7,3.2-4.8,6.5-5.1,9c-0.3,2.1,0.8,3.8,2.6,4.3c1.2,0.3,2.5,0.5,3.8,0.5c1.7,0,2.9-0.3,3-0.4c0.3-0.1,0.5-0.1,0.7-0.1
	c1.1,0,1.9,0.8,1.9,2c0,0.1,0.1,2.6,0.5,5.1c0.4,2.2,1.1,6.8,4.2,6.8l0,0c1.4,0,2.4-0.9,3.3-2.3v29L14.7,99.5L14.7,99.5z M51.8,99.5
	V60.6c1.2-2.4,2.5-4.8,3.7-7.2c1.7-3.3,3.4-6.4,4.6-9.3c1.3,2.9,2.9,6,4.6,9.3c1.2,2.3,2.4,4.6,3.6,7v39.1L51.8,99.5L51.8,99.5
	L51.8,99.5z M105.7,99.5H73V70.3c0.8,1.4,1.9,2.5,3.4,2.5c3.2,0,3.9-4.6,4.3-6.8c0.4-2.5,0.5-5,0.5-5.1c0.1-1.3,0.8-2,1.9-2
	c0.2,0,0.5,0,0.7,0.1c0.1,0,1.3,0.4,3,0.4l0,0c1.3,0,2.6-0.2,3.8-0.5c1.9-0.5,2.9-2.2,2.6-4.3c-0.3-2.4-2.4-5.8-5.1-9h17.4
	L105.7,99.5L105.7,99.5z M115,40.4c0,0.4-0.4,0.7-0.7,0.7h-8.4h-3.9c2.4-3.3,1.8-7.8,1.2-11.4c-0.3-1.6-0.5-3.1-0.4-4.3
	c0-1.6,0.4-3.2,0.7-4.8c0.2-0.9,0.4-1.8,0.5-2.7h10.4c0.4,0,0.7,0.4,0.7,0.7V40.4L115,40.4z"/>
</svg>
