<?xml version="1.0" encoding="utf-8"?>
<!-- Generator: Adobe Illustrator 17.1.0, SVG Export Plug-In . SVG Version: 6.00 Build 0)  -->
<!DOCTYPE svg PUBLIC "-//W3C//DTD SVG 1.1//EN" "http://www.w3.org/Graphics/SVG/1.1/DTD/svg11.dtd">
<svg version="1.1" id="Layer_1" xmlns="http://www.w3.org/2000/svg" xmlns:xlink="http://www.w3.org/1999/xlink" x="0px" y="0px"
	 viewBox="77 22.3 220 183.3" enable-background="new 77 22.3 220 183.3" xml:space="preserve">
<circle fill="#FFFFFF" cx="189.4" cy="115.4" r="139.8"/>
<g>
	<circle fill="#FFFFFF" cx="189.4" cy="115.4" r="127.6"/>
	<circle fill="#FFFFFF" cx="189.4" cy="115.4" r="38.3"/>
	<path d="M188,62.9c-28.3,0-51.1,22.9-51.1,51.1s22.9,51.1,51.1,51.1s51.1-22.9,51.1-51.1S216.3,62.9,188,62.9z M188,139
		c-13.8,0-25-11.2-25-25s11.2-25,25-25s25,11.2,25,25S201.8,139,188,139z"/>
	<path d="M188-45.6C99.9-45.6,28.4,25.9,28.4,114S99.9,273.6,188,273.6S347.6,202.1,347.6,114S276.1-45.6,188-45.6z M279.1,151.7
		c-0.4,9.7-2,16.4-4.2,22.3c-4.8,12.3-14.4,22-26.8,26.8c-5.8,2.3-12.4,3.8-22.3,4.2c-9.7,0.4-12.9,0.6-37.7,0.6s-28-0.1-37.7-0.6
		c-9.7-0.4-16.4-2-22.3-4.2c-6.1-2.3-11.7-5.9-16.2-10.6c-4.7-4.5-8.3-10.2-10.6-16.2c-2.3-5.8-3.8-12.4-4.2-22.3
		c-0.4-9.7-0.6-12.9-0.6-37.7s0.1-28,0.6-37.7c0.4-9.7,2-16.4,4.2-22.3c2.3-6.1,5.9-11.7,10.6-16.2c4.5-4.7,10.2-8.3,16.2-10.6
		c5.8-2.3,12.4-3.8,22.3-4.2c9.7-0.4,12.9-0.6,37.7-0.6s28,0.1,37.7,0.6c9.7,0.4,16.4,2,22.3,4.2c6.1,2.3,11.7,5.9,16.2,10.6
		c4.7,4.5,8.3,10.2,10.6,16.2c2.3,5.8,3.8,12.4,4.2,22.3c0.4,9.7,0.6,12.9,0.6,37.7S279.5,142,279.1,151.7z"/>
	<path d="M258.8,57.6c0,8.6-6.9,15.5-15.5,15.5s-15.5-6.9-15.5-15.5s6.9-15.5,15.5-15.5S258.8,49,258.8,57.6z"/>
</g>
</svg>
