<?xml version="1.0" encoding="utf-8"?>
<!-- Generator: Adobe Illustrator 17.1.0, SVG Export Plug-In . SVG Version: 6.00 Build 0)  -->
<!DOCTYPE svg PUBLIC "-//W3C//DTD SVG 1.1//EN" "http://www.w3.org/Graphics/SVG/1.1/DTD/svg11.dtd">
<svg version="1.1" id="Layer_1" xmlns="http://www.w3.org/2000/svg" xmlns:xlink="http://www.w3.org/1999/xlink" x="0px" y="0px"
	 viewBox="150.1 0 225.9 226" enable-background="new 150.1 0 225.9 226" xml:space="preserve">
<circle fill="#FFFFFF" cx="264" cy="114" r="99"/>
<g>
	<path fill="#D6A4BE" d="M263,76.8c-20,0-36.2,16.2-36.2,36.2s16.2,36.2,36.2,36.2s36.2-16.2,36.2-36.2S283,76.8,263,76.8z
		 M263,130.7c-9.8,0-17.7-7.9-17.7-17.7s7.9-17.7,17.7-17.7c9.8,0,17.7,7.9,17.7,17.7S272.9,130.7,263,130.7z"/>
	<path fill="#D6A4BE" d="M263,0c-62.4,0-113,50.6-113,113s50.6,113,113,113s113-50.6,113-113S325.5,0,263,0z M327.5,139.7
		c-0.3,6.9-1.4,11.6-3,15.8c-3.4,8.7-10.2,15.6-19,19c-4.1,1.6-8.8,2.7-15.8,3c-6.9,0.3-9.1,0.4-26.7,0.4c-17.6,0-19.8-0.1-26.7-0.4
		c-6.9-0.3-11.6-1.4-15.8-3c-4.3-1.6-8.3-4.2-11.5-7.5c-3.3-3.2-5.9-7.2-7.5-11.5c-1.6-4.1-2.7-8.8-3-15.8
		c-0.3-6.9-0.4-9.1-0.4-26.7s0.1-19.8,0.4-26.7c0.3-6.9,1.4-11.6,3-15.8c1.6-4.3,4.2-8.3,7.5-11.5c3.2-3.3,7.2-5.9,11.5-7.5
		c4.1-1.6,8.8-2.7,15.8-3c6.9-0.3,9.1-0.4,26.7-0.4c17.6,0,19.8,0.1,26.7,0.4c6.9,0.3,11.6,1.4,15.8,3c4.3,1.6,8.3,4.2,11.5,7.5
		c3.3,3.2,5.9,7.2,7.5,11.5c1.6,4.1,2.7,8.8,3,15.8c0.3,6.9,0.4,9.1,0.4,26.7S327.9,132.8,327.5,139.7z"/>
	<path fill="#D6A4BE" d="M313.2,73.1c0,6.1-4.9,11-11,11c-6.1,0-11-4.9-11-11s4.9-11,11-11C308.3,62.1,313.2,67,313.2,73.1z"/>
</g>
</svg>
