<?xml version="1.0" encoding="utf-8"?>
<!-- Generator: Adobe Illustrator 17.1.0, SVG Export Plug-In . SVG Version: 6.00 Build 0)  -->
<!DOCTYPE svg PUBLIC "-//W3C//DTD SVG 1.1//EN" "http://www.w3.org/Graphics/SVG/1.1/DTD/svg11.dtd">
<svg version="1.1" id="Layer_1" xmlns="http://www.w3.org/2000/svg" xmlns:xlink="http://www.w3.org/1999/xlink" x="0px" y="0px"
	 viewBox="75 0 226 226" enable-background="new 75 0 226 226" xml:space="preserve">
<g>
	<path fill="#E60086" d="M139.4,186.8h-16.2l37.4-37.3l-9.4-9.4L114,177.3v-16h-13.2V200h38.7V186.8z"/>
	<path fill="#E60086" d="M236.6,186.8V200h38.7v-38.7H262v16l-37.3-37.2l-9.4,9.4l37.4,37.3L236.6,186.8L236.6,186.8z"/>
	<path fill="#E60086" d="M114,48.6l37.3,37.2l9.4-9.4l-37.4-37.3h16.2V25.9h-38.7v38.7H114V48.6z"/>
	<path fill="#E60086" d="M224.7,85.8L262,48.6v16h13.2V26h-38.7v13.2h16.2l-37.4,37.3L224.7,85.8z"/>
	<path fill="#E60086" d="M75,0v226h226V0H75z M287.8,212.8H88.2V13.2h199.5V212.8z"/>
</g>
</svg>
