<?xml version="1.0" encoding="utf-8"?>
<!-- Generator: Adobe Illustrator 17.1.0, SVG Export Plug-In . SVG Version: 6.00 Build 0)  -->
<!DOCTYPE svg PUBLIC "-//W3C//DTD SVG 1.1//EN" "http://www.w3.org/Graphics/SVG/1.1/DTD/svg11.dtd">
<svg version="1.1" id="Layer_1" xmlns="http://www.w3.org/2000/svg" xmlns:xlink="http://www.w3.org/1999/xlink" x="0px" y="0px"
	 viewBox="0 0 512 512" enable-background="new 0 0 512 512" xml:space="preserve">
<g>
	<path fill="#E60086" d="M146,423.2h-36.7l84.7-84.4l-21.2-21.3l-84.5,84.2v-36.2h-30v87.7H146V423.2z"/>
	<path fill="#E60086" d="M366,423.2v30h87.7v-87.7h-30v36.2l-84.5-84.2l-21.2,21.3l84.7,84.4H366z"/>
	<path fill="#E60086" d="M88.3,110.2l84.5,84.2l21.2-21.3l-84.7-84.4H146v-30H58.3v87.7h30V110.2z"/>
	<path fill="#E60086" d="M339.2,194.4l84.5-84.2v36.2h30V58.8H366v30h36.7l-84.7,84.4L339.2,194.4z"/>
	<path fill="#E60086" d="M0,0v512h512V0H0z M482,482H30V30h452V482z"/>
</g>
</svg>
