<?xml version="1.0" encoding="utf-8"?>
<?xml-stylesheet type="text/css" href="../../css/style.css"?>
<!DOCTYPE svg PUBLIC "-//W3C//DTD SVG 1.1//EN" "http://www.w3.org/Graphics/SVG/1.1/DTD/svg11.dtd">
<svg display="none" xmlns="http://www.w3.org/2000/svg" xmlns:xlink="http://www.w3.org/1999/xlink">
		<symbol id="facebook" viewBox="75 0 226 226">
			<g>
				<circle cx="188" cy="113" r="113"/>
				<path fill="#FFFFFF" d="M216.4,117.4h-20.2v73.9h-30.5v-73.9h-14.5v-26h14.5V74.7c0-12,5.7-30.8,30.8-30.8l22.6,0.1v25.2h-16.4
					c-2.7,0-6.5,1.3-6.5,7.1v15.3h22.8L216.4,117.4z"/>
			</g>
		</symbol>

		<symbol id="odnoklassniki" viewBox="75 0 226 226">
			<g>
				<path d="M188,93.6c10.9,0,19.4-8.8,19.4-19.4c0-10.9-8.6-19.4-19.4-19.4s-19.6,8.8-19.4,19.6
					C168.6,85,177.1,93.6,188,93.6z"/>
				<path d="M188,0C125.6,0,75,50.6,75,113s50.6,113,113,113s113-50.6,113-113S250.4,0,188,0z M188,34.4
					c22,0,39.7,18,39.5,40.2c0,21.7-18,39.3-40,39.3c-21.7,0-39.5-18-39.5-40C148.3,52,166,34.2,188,34.4z M232.6,129.6
					c-4.9,5.1-10.6,8.6-17.3,11.1c-6.2,2.3-12.9,3.5-19.6,4.4c0.9,1.2,1.4,1.6,2.1,2.3c9,9,18.3,18.3,27.3,27.3c3,3,3.7,6.9,2.1,10.6
					c-1.8,3.9-6,6.5-10.2,6.2c-2.5-0.2-4.6-1.4-6.5-3.2c-6.9-6.9-13.9-13.6-20.6-20.6c-1.8-2.1-2.8-1.6-4.6,0.2
					c-6.9,7.2-13.9,14.1-20.8,21c-3.2,3-6.9,3.7-10.6,1.8c-3.9-1.8-6.5-5.8-6.2-9.9c0.2-2.8,1.4-4.9,3.2-6.7c9-9,17.8-18,26.8-26.8
					c0.7-0.7,1.2-1.2,2.1-2.1c-12.2-1.4-23.1-4.2-32.6-11.6c-1.2-0.9-2.3-1.8-3.5-2.8c-4.2-3.9-4.6-8.6-1.4-13.2
					c2.8-3.9,7.4-5.1,12.2-2.8c0.9,0.5,1.8,0.9,2.8,1.6c17.6,12,41.6,12.5,59.2,0.5c1.8-1.4,3.7-2.3,5.8-3c4.2-1.2,8.1,0.5,10.4,4.2
					C235.8,122.2,235.8,126.2,232.6,129.6z"/>
			</g>
		</symbol>

		<symbol id="twitter" viewBox="78 0 226 226">
			<g>
				<circle cx="191" cy="113" r="113"/>
				<g>
					<path fill="#FFFFFF" d="M260.2,81.2c-4.8,2.1-10.1,3.6-15.5,4.2c5.6-3.3,9.9-8.6,11.9-14.9c-5.2,3.1-11,5.3-17.2,6.6
						c-4.9-5.2-11.9-8.5-19.7-8.5c-14.9,0-27,12.1-27,27c0,2.1,0.2,4.2,0.7,6.2c-22.4-1.1-42.4-11.9-55.7-28.2c-2.3,4-3.7,8.6-3.7,13.6
						c0,9.4,4.8,17.6,12,22.5c-4.4-0.1-8.6-1.4-12.2-3.4c0,0.1,0,0.2,0,0.3c0,13.1,9.3,24,21.7,26.5c-2.3,0.6-4.7,0.9-7.1,0.9
						c-1.7,0-3.4-0.2-5.1-0.5c3.4,10.7,13.4,18.5,25.2,18.8c-9.2,7.2-20.9,11.6-33.5,11.6c-2.2,0-4.3-0.1-6.4-0.4
						c11.9,7.7,26.1,12.1,41.4,12.1c49.7,0,76.9-41.2,76.9-76.9c0-1.2,0-2.3-0.1-3.5C252,91.4,256.6,86.6,260.2,81.2L260.2,81.2z"/>
				</g>
			</g>
		</symbol>

		<symbol id="viber" viewBox="83 0 225.8 226">
			<circle fill="#808080" cx="196" cy="113" r="113"/>
			<g>
				<path fill="#FFFFFF" d="M277,73.4L277,73.4c-4-16.6-22.5-34.4-39.4-38.1h-0.1c-27.4-5.3-55.2-5.3-82.6,0h-0.1
					c-16.9,3.7-35.4,21.4-39.5,38v0.1c-5,23.1-5,46.5,0,69.7v0.1c3.9,15.9,21,32.8,37.3,37.4V199c0,6.6,8.1,10,12.7,5.2l18.7-19.4
					c4.1,0.3,8.1,0.4,12.2,0.4c13.8,0,27.7-1.4,41.4-3.9h0.1c16.9-3.7,35.4-21.4,39.5-38v-0.1C282,120.1,282,96.6,277,73.4z
					 M262.3,139.7c-2.7,10.8-16.8,24.3-27.9,26.7c-14.6,2.7-29.3,3.9-43.9,3.5c-0.3,0-0.5,0.1-0.8,0.3c-2,2.2-13.7,14-13.7,14
					l-14.5,14.9c-1.1,1.1-3,0.4-3-1.2v-30.6c0-0.5-0.4-0.9-0.8-1.1l0,0c-11.1-2.4-25.1-15.9-27.9-26.7c-4.6-20.9-4.6-42,0-62.9
					c2.7-10.8,16.8-24.3,27.9-26.7c25.5-4.9,51.3-4.9,76.7,0c11.1,2.4,25.1,15.9,27.9,26.7C266.7,97.7,266.7,118.9,262.3,139.7z"/>
				<path fill="#FFFFFF" d="M220.2,153.9c-1.8-0.5-3.4-0.8-4.9-1.5c-15.7-6.5-30.1-14.9-41.6-27.8c-6.5-7.3-11.7-15.6-15.9-24.4
					c-2-4.2-3.8-8.4-5.6-12.7c-1.6-3.9,0.8-8,3.3-10.8c2.3-2.7,5.3-4.9,8.5-6.4c2.6-1.2,5-0.5,6.9,1.6c3.9,4.6,7.7,9.5,10.6,14.9
					c1.8,3.3,1.4,7.3-2,9.6c-0.8,0.5-1.5,1.2-2.3,1.8c-0.7,0.5-1.2,1.1-1.8,1.8c-0.8,1.4-0.8,3-0.3,4.3c4.1,11.3,11,19.9,22.2,24.7
					c1.8,0.8,3.7,1.6,5.7,1.4c3.5-0.4,4.6-4.2,7.1-6.2c2.4-1.9,5.4-2,8-0.4s5,3.4,7.6,5.2c2.4,1.8,4.9,3.4,7.1,5.4
					c2.2,1.9,2.8,4.3,1.6,6.9c-2.2,4.7-5.4,8.7-10.2,11.1C223.2,153.2,221.7,153.4,220.2,153.9C218.5,153.4,221.7,153.4,220.2,153.9z"
					/>
				<path fill="#FFFFFF" d="M195.9,64.8c20.5,0.5,37.4,14.2,40.9,34.4c0.7,3.5,0.8,7.1,1.1,10.4c0.1,1.5-0.7,2.8-2.3,2.8
					s-2.4-1.4-2.4-2.8c-0.3-3-0.4-5.8-0.8-8.8c-2.2-15.3-14.4-27.9-29.6-30.6c-2.3-0.4-4.6-0.5-6.9-0.8c-1.5-0.1-3.4-0.3-3.7-2
					c-0.3-1.5,1.1-2.7,2.4-2.8C195.1,64.8,195.5,64.8,195.9,64.8C216.6,65.3,195.5,64.8,195.9,64.8z"/>
				<path fill="#FFFFFF" d="M227.1,105.3c0,0.3,0,0.8-0.1,1.5c-0.5,2-3.7,2.3-4.3,0.3c-0.3-0.7-0.3-1.4-0.3-2c0-4.3-0.9-8.7-3.1-12.5
					c-2.3-3.9-5.7-7.2-9.8-9.1c-2.4-1.2-5-1.9-7.7-2.4c-1.2-0.1-2.3-0.3-3.5-0.5c-1.5-0.1-2.2-1.1-2.2-2.6c0-1.4,1.1-2.3,2.4-2.2
					c4.7,0.3,9.2,1.2,13.4,3.5c8.5,4.5,13.4,11.7,14.8,21.2c0,0.4,0.1,0.8,0.1,1.4C227,102.7,227.1,103.8,227.1,105.3
					C227.1,105.4,227.1,103.8,227.1,105.3z"/>
				<path fill="#FFFFFF" d="M214.4,104.8c-1.8,0-2.6-0.9-2.8-2.4c-0.1-1.1-0.3-2.2-0.5-3.3c-0.5-2.2-1.6-4.1-3.4-5.3
					c-0.8-0.5-1.8-1.1-2.7-1.4c-1.2-0.4-2.6-0.3-3.8-0.5c-1.4-0.3-2.2-1.5-1.9-2.7c0.1-1.2,1.4-2,2.6-2c8,0.5,13.7,4.7,14.5,14.1
					c0,0.7,0.1,1.4,0,2C216,104.2,215.2,104.8,214.4,104.8C212.8,104.8,215.2,104.8,214.4,104.8z"/>
			</g>
		</symbol>

		<symbol id="vk" viewBox="75 0 226 226">
				<g>
					<g>
						<circle id="XMLID_11_" cx="188" cy="113" r="113"/>
					</g>
					<path fill="#FFFFFF" d="M183.7,162.6h8.9c0,0,2.7-0.3,4-1.8c1.3-1.4,1.2-3.9,1.2-3.9s-0.2-11.9,5.4-13.7
						c5.4-1.7,12.4,11.5,19.8,16.6c5.6,3.8,9.9,3,9.9,3l19.8-0.3c0,0,10.4-0.6,5.5-8.8c-0.4-0.7-2.9-6-14.7-17
						c-12.4-11.5-10.8-9.7,4.2-29.6c9.1-12.1,12.8-19.6,11.6-22.7c-1.1-3-7.8-2.2-7.8-2.2l-22.3,0.1c0,0-1.7-0.2-2.9,0.5
						c-1.2,0.7-2,2.4-2,2.4s-3.5,9.4-8.2,17.4c-9.9,16.9-13.9,17.8-15.5,16.7c-3.8-2.4-2.8-9.8-2.8-15c0-16.3,2.5-23.2-4.8-24.9
						c-2.4-0.6-4.2-1-10.4-1c-8-0.1-14.7,0-18.5,1.9c-2.5,1.2-4.5,4-3.3,4.2c1.5,0.2,4.8,0.9,6.6,3.3c2.3,3.1,2.2,10.1,2.2,10.1
						s1.3,19.2-3.1,21.6c-3,1.6-7.1-1.7-16-17c-4.5-7.8-8-16.5-8-16.5s-0.7-1.6-1.8-2.5c-1.4-1-3.4-1.4-3.4-1.4L116,82.1
						c0,0-3.2,0.1-4.4,1.5c-1,1.2-0.1,3.8-0.1,3.8s16.6,38.8,35.4,58.4C164.2,163.7,183.7,162.6,183.7,162.6L183.7,162.6z"/>
				</g>
		</symbol>

		<symbol id="instagram" viewBox="108 33 160 160">
			<circle fill="#FFFFFF" cx="189" cy="114" r="99"/>
			<g>
				<path d="M188,76.8c-20,0-36.2,16.2-36.2,36.2s16.2,36.2,36.2,36.2s36.2-16.2,36.2-36.2S208,76.8,188,76.8z M188,130.7
					c-9.8,0-17.7-7.9-17.7-17.7s7.9-17.7,17.7-17.7s17.7,7.9,17.7,17.7S197.8,130.7,188,130.7z"/>
				<path d="M188,0C125.6,0,75,50.6,75,113s50.6,113,113,113s113-50.6,113-113S250.4,0,188,0z M252.5,139.7c-0.3,6.9-1.4,11.6-3,15.8
					c-3.4,8.7-10.2,15.6-19,19c-4.1,1.6-8.8,2.7-15.8,3c-6.9,0.3-9.1,0.4-26.7,0.4s-19.8-0.1-26.7-0.4c-6.9-0.3-11.6-1.4-15.8-3
					c-4.3-1.6-8.3-4.2-11.5-7.5c-3.3-3.2-5.9-7.2-7.5-11.5c-1.6-4.1-2.7-8.8-3-15.8c-0.3-6.9-0.4-9.1-0.4-26.7s0.1-19.8,0.4-26.7
					c0.3-6.9,1.4-11.6,3-15.8c1.6-4.3,4.2-8.3,7.5-11.5c3.2-3.3,7.2-5.9,11.5-7.5c4.1-1.6,8.8-2.7,15.8-3c6.9-0.3,9.1-0.4,26.7-0.4
					s19.8,0.1,26.7,0.4c6.9,0.3,11.6,1.4,15.8,3c4.3,1.6,8.3,4.2,11.5,7.5c3.3,3.2,5.9,7.2,7.5,11.5c1.6,4.1,2.7,8.8,3,15.8
					c0.3,6.9,0.4,9.1,0.4,26.7S252.8,132.8,252.5,139.7z"/>
				<path d="M238.1,73.1c0,6.1-4.9,11-11,11s-11-4.9-11-11s4.9-11,11-11S238.1,67,238.1,73.1z"/>
			</g>
		</symbol>

		<symbol id="cross" viewBox="0 0 357 357">
			<g>
				<g id="clear">
					<polygon points="357,35.7 321.3,0 178.5,142.8 35.7,0 0,35.7 142.8,178.5 0,321.3 35.7,357 178.5,214.2 321.3,357 357,321.3 
						214.2,178.5 		"/>
				</g>
			</g>
			<g>
			</g>
			<g>
			</g>
			<g>
			</g>
			<g>
			</g>
			<g>
			</g>
			<g>
			</g>
			<g>
			</g>
			<g>
			</g>
			<g>
			</g>
			<g>
			</g>
			<g>
			</g>
			<g>
			</g>
			<g>
			</g>
			<g>
			</g>
			<g>
			</g>
		</symbol>

		<symbol id="maximize" viewBox="75 0 226 226">
			<g>
				<path d="M139.4,186.8h-16.2l37.4-37.3l-9.4-9.4L114,177.3v-16h-13.2V200h38.7V186.8z"/>
				<path d="M236.6,186.8V200h38.7v-38.7H262v16l-37.3-37.2l-9.4,9.4l37.4,37.3L236.6,186.8L236.6,186.8z"/>
				<path d="M114,48.6l37.3,37.2l9.4-9.4l-37.4-37.3h16.2V25.9h-38.7v38.7H114V48.6z"/>
				<path d="M224.7,85.8L262,48.6v16h13.2V26h-38.7v13.2h16.2l-37.4,37.3L224.7,85.8z"/>
				<path d="M75,0v226h226V0H75z M287.8,212.8H88.2V13.2h199.5V212.8z"/>
			</g>
		</symbol>

		<symbol id="maximize" viewBox="0 0 306 306">
			<g id="chevron-right">
					<polygon points="94.35,0 58.65,35.7 175.95,153 58.65,270.3 94.35,306 247.35,153   " data-original="#000000" class="active-path" data-old_color="#ffffff"/>
			</g>
		</symbol>
</svg>