<?xml version="1.0" encoding="utf-8"?>
<!-- Generator: Adobe Illustrator 17.1.0, SVG Export Plug-In . SVG Version: 6.00 Build 0)  -->
<!DOCTYPE svg PUBLIC "-//W3C//DTD SVG 1.1//EN" "http://www.w3.org/Graphics/SVG/1.1/DTD/svg11.dtd">
<svg version="1.1" id="Layer_1" xmlns="http://www.w3.org/2000/svg" xmlns:xlink="http://www.w3.org/1999/xlink" x="0px" y="0px"
	 viewBox="75 0 226 226" enable-background="new 75 0 226 226" xml:space="preserve">
<g id="Layer_2">
</g>
<g id="Capa_1">
	<g>
		<circle fill="#FFFFFF" stroke="#000000" stroke-miterlimit="10" cx="188" cy="113" r="102.6"/>
		<g>
			<path fill="#D6A4BE" d="M188,0C125.6,0,75,50.6,75,113s50.6,113,113,113s113-50.6,113-113S250.4,0,188,0z M245.3,125.2
				c5.3,5.2,10.9,10,15.6,15.7c2.1,2.5,4.1,5.1,5.6,8c2.2,4.1,0.2,8.7-3.5,9h-23.1c-6,0.5-10.7-1.9-14.7-6
				c-3.2-3.3-6.2-6.8-9.3-10.1c-1.3-1.4-2.6-2.7-4.1-3.7c-3.1-2.1-5.9-1.4-7.7,1.9c-1.9,3.4-2.3,7.1-2.4,10.8
				c-0.3,5.5-1.9,6.9-7.4,7.2c-11.7,0.5-22.8-1.2-33.1-7.1c-9.1-5.2-16.2-12.5-22.3-20.9c-12-16.2-21.1-34-29.4-52.3
				c-1.9-4.1-0.5-6.3,4.1-6.4c7.5-0.1,15.1-0.1,22.7,0c3.1,0,5.1,1.8,6.3,4.7c4.1,10.1,9.1,19.6,15.4,28.5c1.7,2.3,3.4,4.7,5.8,6.4
				c2.7,1.9,4.7,1.2,6-1.8c0.8-1.9,1.1-3.9,1.3-6c0.6-7,0.7-13.9-0.4-20.9c-0.7-4.4-3.1-7.2-7.4-8c-2.2-0.4-1.9-1.2-0.8-2.5
				c1.9-2.2,3.6-3.5,7.1-3.5h26.2c4.1,0.8,5,2.6,5.6,6.8l0,29.1c0,1.6,0.8,6.4,3.7,7.4c2.3,0.8,3.8-1.1,5.2-2.6
				c6.3-6.7,10.7-14.5,14.7-22.6c1.8-3.6,3.3-7.3,4.8-11c1.1-2.7,2.8-4.1,5.9-4.1l25.2,0c0.8,0,1.5,0,2.3,0.1
				c4.2,0.7,5.4,2.6,4.1,6.7c-2.1,6.5-6.1,11.9-10,17.3c-4.2,5.8-8.7,11.4-12.8,17.3C240.3,117.9,240.6,120.6,245.3,125.2z"/>
		</g>
	</g>
</g>
</svg>
