<?xml version="1.0" encoding="utf-8"?>
<!-- Generator: Adobe Illustrator 17.1.0, SVG Export Plug-In . SVG Version: 6.00 Build 0)  -->
<!DOCTYPE svg PUBLIC "-//W3C//DTD SVG 1.1//EN" "http://www.w3.org/Graphics/SVG/1.1/DTD/svg11.dtd">
<svg version="1.1" id="Capa_1" xmlns="http://www.w3.org/2000/svg" xmlns:xlink="http://www.w3.org/1999/xlink" x="0px" y="0px"
	 viewBox="14 0 106 104.2" enable-background="new 14 0 106 104.2" xml:space="preserve">
<g>
	<path fill="#FFFFFF" d="M63,13c0-5.5,4.5-10,10-10h10.8c5.5,0,10,4.5,10,10v81.2c0,5.5-4.5,10-10,10H73c-5.5,0-10-4.5-10-10V13z"/>
</g>
<rect x="47.3" y="8.7" fill="#FFFFFF" width="63.5" height="60.5"/>
<g>
	<path fill="#FFA533" d="M113.4,0H20.7c-3.2,0-5.8,2.6-5.8,5.8v92.7c0,3.2,2.6,5.8,5.8,5.8h49.9V63.8H57V48.1h13.6V36.5
		c0-13.5,8.2-20.7,20.2-20.7c5.8,0,10.7,0.4,12.1,0.6v14.1h-8.3c-6.6,0-7.8,3.1-7.8,7.6v10h15.6l-2.1,15.8H86.9v40.3h26.6
		c3.2,0,5.8-2.6,5.8-5.8V5.8C119.2,2.6,116.6,0,113.4,0z"/>
</g>
</svg>
