<?xml version="1.0" encoding="utf-8"?>
<!-- Generator: Adobe Illustrator 17.1.0, SVG Export Plug-In . SVG Version: 6.00 Build 0)  -->
<!DOCTYPE svg PUBLIC "-//W3C//DTD SVG 1.1//EN" "http://www.w3.org/Graphics/SVG/1.1/DTD/svg11.dtd">
<svg version="1.1" id="Capa_1" xmlns="http://www.w3.org/2000/svg" xmlns:xlink="http://www.w3.org/1999/xlink" x="0px" y="0px"
	 viewBox="7.2 -0.3 105.8 105.7" enable-background="new 7.2 -0.3 105.8 105.7" xml:space="preserve">
<rect x="27.5" y="4.5" fill="#FFFFFF" width="63.8" height="94"/>
<g>
	<g>
		<path fill="#FFA533" d="M60.1,42c5.9,0,10.5-4.7,10.5-10.6c0-5.9-4.7-10.6-10.6-10.6c-5.9,0-10.6,4.8-10.6,10.7
			C49.5,37.4,54.2,42,60.1,42z"/>
		<path fill="#FFA533" d="M106.9,0H13.1C10,0,7.5,2.5,7.5,5.6v93.8c0,3.1,2.5,5.6,5.6,5.6h93.8c3.1,0,5.6-2.5,5.6-5.6V5.6
			C112.5,2.5,110,0,106.9,0z M60.1,9.8c12,0,21.6,9.8,21.5,21.9C81.5,43.5,71.8,53.1,59.8,53C48,53,38.3,43.2,38.4,31.4
			C38.5,19.4,48.2,9.8,60.1,9.8z M84.3,61.5c-2.6,2.7-5.8,4.7-9.4,6c-3.3,1.3-7,1.9-10.6,2.4c0.6,0.6,0.8,0.9,1.1,1.2
			c4.9,4.9,9.9,9.9,14.8,14.8c1.7,1.7,2,3.8,1.1,5.7c-1,2.2-3.3,3.6-5.5,3.4c-1.4-0.1-2.5-0.8-3.5-1.8c-3.7-3.7-7.5-7.4-11.1-11.2
			c-1.1-1.1-1.6-0.9-2.5,0.1c-3.7,3.8-7.5,7.6-11.3,11.4c-1.7,1.7-3.8,2-5.7,1c-2.1-1-3.5-3.2-3.3-5.4c0.1-1.5,0.8-2.6,1.8-3.6
			c4.9-4.9,9.7-9.7,14.6-14.6c0.3-0.3,0.6-0.7,1.1-1.2c-6.6-0.7-12.6-2.3-17.7-6.3c-0.6-0.5-1.3-1-1.9-1.5C34,60,33.8,57.5,35.6,55
			c1.5-2.2,4.1-2.7,6.7-1.5c0.5,0.2,1,0.5,1.5,0.9c9.5,6.5,22.6,6.7,32.2,0.3c0.9-0.7,2-1.3,3.1-1.6c2.3-0.6,4.4,0.2,5.6,2.3
			C86,57.5,86,59.7,84.3,61.5z"/>
	</g>
</g>
</svg>
