<?xml version="1.0" encoding="utf-8"?>
<!-- Generator: Adobe Illustrator 17.1.0, SVG Export Plug-In . SVG Version: 6.00 Build 0)  -->
<!DOCTYPE svg PUBLIC "-//W3C//DTD SVG 1.1//EN" "http://www.w3.org/Graphics/SVG/1.1/DTD/svg11.dtd">
<svg version="1.1" xmlns="http://www.w3.org/2000/svg" xmlns:xlink="http://www.w3.org/1999/xlink" x="0px" y="0px"
	 viewBox="7 -0.3 105.8 105.8" enable-background="new 7 -0.3 105.8 105.8" xml:space="preserve">
<g id="Layer_2">
	<rect x="11.7" y="16.7" fill="#FFFFFF" width="96.7" height="66.3"/>
</g>
<g id="Capa_1">
	<g>
		<path fill="#FFA533" d="M106.9,0H13.1C10,0,7.5,2.5,7.5,5.6v93.8c0,3.1,2.5,5.6,5.6,5.6h93.8c3.1,0,5.6-2.5,5.6-5.6V5.6
			C112.5,2.5,110,0,106.9,0z M91.1,59.1c2.9,2.8,5.9,5.4,8.4,8.5c1.1,1.4,2.2,2.8,3,4.3c1.2,2.3,0.1,4.7-1.9,4.9H88.1
			c-3.2,0.3-5.8-1-8-3.3c-1.7-1.8-3.3-3.7-5-5.5c-0.7-0.8-1.4-1.5-2.3-2c-1.7-1.1-3.2-0.8-4.2,1c-1,1.8-1.2,3.8-1.3,5.9
			c-0.1,3-1,3.7-4,3.9c-6.4,0.3-12.4-0.7-18-3.9c-4.9-2.8-8.8-6.8-12.1-11.3c-6.5-8.8-11.5-18.5-15.9-28.4c-1-2.2-0.3-3.4,2.2-3.5
			c4.1-0.1,8.2-0.1,12.3,0c1.7,0,2.8,1,3.4,2.6c2.2,5.5,4.9,10.6,8.3,15.5c0.9,1.3,1.8,2.6,3.2,3.5c1.5,1,2.6,0.7,3.3-1
			c0.4-1,0.6-2.1,0.7-3.2c0.3-3.8,0.4-7.6-0.2-11.4c-0.3-2.4-1.7-3.9-4-4.3c-1.2-0.2-1-0.7-0.5-1.4c1-1.2,2-1.9,3.9-1.9h14.2
			c2.2,0.4,2.7,1.4,3,3.7l0,15.8c0,0.9,0.4,3.5,2,4c1.3,0.4,2.1-0.6,2.8-1.4c3.4-3.6,5.8-7.9,8-12.3c1-1.9,1.8-4,2.6-6
			c0.6-1.5,1.5-2.2,3.2-2.2l13.7,0c0.4,0,0.8,0,1.2,0.1c2.3,0.4,2.9,1.4,2.2,3.6c-1.1,3.5-3.3,6.5-5.4,9.4c-2.3,3.2-4.7,6.2-7,9.4
			C88.4,55.2,88.5,56.6,91.1,59.1z"/>
	</g>
</g>
</svg>
