<?xml version="1.0" encoding="utf-8"?>
<!-- Generator: Adobe Illustrator 19.2.0, SVG Export Plug-In . SVG Version: 6.00 Build 0)  -->
<svg version="1.1" id="Слой_1" xmlns="http://www.w3.org/2000/svg" xmlns:xlink="http://www.w3.org/1999/xlink" x="0px" y="0px"
	 viewBox="0 0 16 16" style="enable-background:new 0 0 16 16;" xml:space="preserve">
<style type="text/css">
	.st0{fill:#3C3C3B;}
</style>
<g>
	<g>
		<path class="st0" d="M12.7,1.7c-1.6,0.5-2.1,1.2-2.1,2.8c0,0.9-0.2,1.7,0.8,2c2.6,1,4.2-4.6,2.5-6C10.5-2.3,5,12,4.1,14.1
			c-0.2,0.6,0.2,1.4,0,2c1.3-2.9,2.6-5.8,4.1-8.6c0.7-1.3,1.4-2.9,2.5-4c0.9-0.9,3.7-2.2,3.7,0.3c0-0.6,0-1.1,0-1.7
			c-0.4,1.3-2.7,4.3-3.8,1.8c0,0.7,0,1.3,0,2c0.1-1.3,1-1.7,2.1-2C13,3.7,12.6,1.8,12.7,1.7L12.7,1.7z"/>
	</g>
</g>
<g>
	<g>
		<path class="st0" d="M11.9,14.1C11,12,5.5-2.3,2.1,0.5C0.4,1.9,1.9,7.1,4.3,6.7c1.2-0.2,1.1-1.1,1-2.1c0-1.6-0.5-2.3-2.1-2.8
			c0.2,0.1-0.2,1.9,0,2c1.1,0.4,2,0.6,2.1,2c0-0.7,0-1.3,0-2C4.3,6.2,2,3.3,1.6,2c0,0.6,0,1.1,0,1.7c0-2.4,2.7-1.2,3.6-0.3
			C6.3,4.4,7.1,6,7.8,7.4c1.5,2.8,2.8,5.7,4.1,8.6C11.7,15.5,12.2,14.6,11.9,14.1L11.9,14.1z"/>
	</g>
</g>
</svg>
