<?xml version="1.0" encoding="utf-8"?>
<!-- Generator: Adobe Illustrator 17.1.0, SVG Export Plug-In . SVG Version: 6.00 Build 0)  -->
<!DOCTYPE svg PUBLIC "-//W3C//DTD SVG 1.1//EN" "http://www.w3.org/Graphics/SVG/1.1/DTD/svg11.dtd">
<svg version="1.1" id="Layer_1" xmlns="http://www.w3.org/2000/svg" xmlns:xlink="http://www.w3.org/1999/xlink" x="0px" y="0px"
	 viewBox="0 0 614 614" enable-background="new 0 0 614 614" xml:space="preserve">
<linearGradient id="SVGID_1_" gradientUnits="userSpaceOnUse" x1="453.9" y1="296" x2="453.9" y2="614" gradientTransform="matrix(1 0 0 -1 0 616)">
	<stop  offset="0" style="stop-color:#FAA437"/>
	<stop  offset="1" style="stop-color:#F2673A"/>
</linearGradient>
<path fill="url(#SVGID_1_)" d="M453.9,2c-88.4,0-160.1,71.2-160.1,159s71.7,159,160.1,159S614,248.8,614,161S542.3,2,453.9,2z
	 M453.7,295.6c-73.8,0-133.7-60.4-133.7-134.9S379.8,25.8,453.7,25.8s133.7,60.4,133.7,134.9C587.3,235.4,527.5,295.6,453.7,295.6z"
	/>
<g>
	<g>
		
			<linearGradient id="SVGID_2_" gradientUnits="userSpaceOnUse" x1="454" y1="391.5" x2="454" y2="518.3" gradientTransform="matrix(1 0 0 -1 0 616)">
			<stop  offset="0" style="stop-color:#FAA437"/>
			<stop  offset="1" style="stop-color:#F2673A"/>
		</linearGradient>
		<path fill="url(#SVGID_2_)" d="M454,97.7c-34.9,0-63.4,28.4-63.4,63.4s28.4,63.4,63.4,63.4s63.4-28.4,63.4-63.4
			S488.9,97.7,454,97.7z M454,200.5c-21.8,0-39.4-17.7-39.4-39.4s17.7-39.4,39.4-39.4s39.4,17.7,39.4,39.4S475.8,200.5,454,200.5z"
			/>
	</g>
</g>
<g>
	<g>
		
			<linearGradient id="SVGID_3_" gradientUnits="userSpaceOnUse" x1="453.8895" y1="337" x2="453.8895" y2="572.9" gradientTransform="matrix(1 0 0 -1 0 616)">
			<stop  offset="0" style="stop-color:#FAA437"/>
			<stop  offset="1" style="stop-color:#F2673A"/>
		</linearGradient>
		<path fill="url(#SVGID_3_)" d="M566.6,162.3c3.9-2.4,6.1-6.8,5.7-11.4s-3.5-8.5-7.8-10c-3.7-1.4-6.6-4.4-7.6-8.2
			c-1.1-3.8-0.4-7.9,2.2-11c2.9-3.6,3.3-8.5,1.2-12.7c-2-4.1-6.2-6.6-10.6-6.6h-0.1c-3.9,0-7.6-1.8-10-4.9c-2.4-3.2-3.1-7.2-2-11
			c1.3-4.4,0-9.2-3.3-12.2c-3.3-3.1-8.2-3.9-12.6-2.3c-3.7,1.4-7.8,1.2-11.2-1c-3.3-2.2-5.5-5.6-5.9-9.6c-0.4-4.5-3.3-8.5-7.6-10.2
			c-4.3-1.7-9.1-0.7-12.4,2.4c-2.9,2.7-6.8,3.8-10.8,3.1c-3.9-0.7-7.2-3.2-9-6.8c-2-4.2-6.2-6.8-10.8-6.8s-8.7,2.6-10.8,6.8
			c-1.8,3.6-5,6.1-9,6.8s-7.9-0.4-10.8-3.1c-3.3-3.1-8.2-4.1-12.4-2.4c-4.3,1.7-7.2,5.6-7.6,10.2c-0.4,3.9-2.5,7.5-5.9,9.6
			c-3.3,2.2-7.5,2.5-11.2,1c-4.3-1.7-9.1-0.8-12.6,2.3c-3.3,3.1-4.7,7.9-3.3,12.2c1.2,3.8,0.4,7.9-2,11s-6,4.9-9.9,4.9
			c-0.1,0-0.2,0-0.4,0c-4.5,0-8.7,2.5-10.6,6.6c-2,4.1-1.6,9,1.2,12.7c2.4,3.1,3.2,7.2,2.2,11c-1.1,3.8-3.8,6.8-7.6,8.2
			c-4.3,1.6-7.3,5.5-7.8,10s1.8,9,5.7,11.4c3.5,2,5.6,5.5,6,9.6c0.4,3.9-1.1,7.8-4.1,10.4c-3.5,3.1-4.8,7.8-3.6,12.2
			s4.9,7.8,9.4,8.5c3.9,0.7,7.2,3.1,9,6.7s1.8,7.6-0.1,11.2c-2.2,4.1-1.7,9,1.1,12.7s7.4,5.4,11.8,4.5c3.9-0.8,7.9,0.4,10.8,3
			c3,2.7,4.4,6.5,3.9,10.5c-0.5,4.5,1.7,9,5.6,11.4s8.8,2.4,12.7-0.1c3.3-2.2,7.4-2.5,11.1-1.1s6.5,4.5,7.5,8.4
			c1.2,4.4,4.8,7.8,9.3,8.6c4.5,0.8,9.1-1,11.8-4.7c2.4-3.2,6-5,10-5s7.6,1.8,10,5c2.3,3.1,5.9,4.9,9.7,4.9c0.7,0,1.4-0.1,2.2-0.2
			c4.5-0.8,8.1-4.2,9.3-8.6c1.1-3.8,3.8-6.9,7.5-8.4c3.7-1.4,7.8-1.1,11.1,1.1c3.8,2.5,8.8,2.5,12.7,0.1s6.1-6.8,5.6-11.4
			c-0.5-3.9,1.1-7.8,3.9-10.5c3-2.7,6.9-3.8,10.8-3c4.5,1,9.1-0.8,11.8-4.5s3.2-8.6,1.1-12.7c-1.8-3.6-1.8-7.6-0.1-11.2
			c1.8-3.6,5-6,9-6.7c4.5-0.8,8.2-4.1,9.4-8.5c1.3-4.4-0.1-9.2-3.6-12.2c-3-2.6-4.5-6.5-4.1-10.4C561,167.9,563.2,164.4,566.6,162.3
			z M539.1,186.2c-4.4,3.3-8,7.6-10.6,12.9c-2.6,5.1-3.8,10.8-3.8,16.3c-5.4,1.6-10.3,4.3-14.6,8.1c-4.3,3.9-7.4,8.6-9.4,13.7
			c-5.5-0.5-11.1,0.2-16.5,2.4c-5.4,2-10,5.3-13.7,9.4c-4.9-2.5-10.5-3.8-16.3-3.8c-5.7,0-11.4,1.3-16.3,3.8
			c-3.7-4.1-8.4-7.3-13.7-9.4c-5.4-2-11-2.9-16.5-2.4c-2-5.1-5.1-9.9-9.4-13.7c-4.3-3.9-9.2-6.7-14.6-8.1c0-5.5-1.3-11.1-3.8-16.3
			c-2.6-5.1-6.2-9.6-10.6-12.9c2-5.1,2.9-10.8,2.3-16.5c-0.5-5.7-2.4-11.1-5.3-15.9c3.7-4.1,6.6-9.1,8.1-14.6
			c1.6-5.5,1.8-11.2,0.8-16.6c4.9-2.5,9.3-6.1,12.8-10.6s5.7-9.8,6.8-15.3c5.5-0.5,10.9-2.3,15.8-5.4c4.9-3,9-7.1,11.8-11.8
			c5.4,1.6,11,1.8,16.7,0.7s10.9-3.3,15.3-6.7c4.4,3.3,9.6,5.6,15.3,6.7c5.6,1.1,11.4,0.8,16.7-0.7c2.9,4.7,6.9,8.7,11.8,11.8
			c4.9,3,10.3,4.8,15.8,5.4c1,5.5,3.3,10.6,6.8,15.3s7.9,8.2,12.8,10.6c-1.1,5.5-0.8,11.1,0.8,16.7c1.6,5.5,4.3,10.5,8.1,14.6
			c-2.9,4.7-4.8,10-5.3,15.9C536.3,175.4,537.1,181.1,539.1,186.2z"/>
	</g>
</g>
<g>
	<g>
		
			<linearGradient id="SVGID_4_" gradientUnits="userSpaceOnUse" x1="306.969" y1="2" x2="306.969" y2="614.0765" gradientTransform="matrix(1 0 0 -1 0 616)">
			<stop  offset="0" style="stop-color:#FAA437"/>
			<stop  offset="1" style="stop-color:#F2673A"/>
		</linearGradient>
		<path fill="url(#SVGID_4_)" d="M595.2,88.1c-3-5.9-10.3-8.1-16.1-5.1c-5.9,3-8.1,10.3-5.1,16.1c27.3,52.4,17.3,115.7-24.4,157.5
			c-4.9,4.9-10,9.3-15.5,13.4c-0.1,0.1-0.2,0.1-0.4,0.2c-23,16.9-50.6,25.9-79.6,25.9c-36.1,0-69.9-14.1-95.5-39.6
			C333.1,231,319,197.1,319,161c0-29.2,9.2-57,26.3-80.1v-0.1c0.1-0.1,0.2-0.2,0.4-0.5c3.9-5.3,8.2-10.2,12.9-14.9
			C400,24,463,14,515.2,40.5c5.9,3,13,0.6,16-5.3c3-5.9,0.6-13-5.3-16C464.5-12,390.4-0.2,341.5,48.6c-5.6,5.6-10.6,11.5-15.3,17.7
			L209.8,209c-4.2,5.1-3.5,12.7,1.7,16.9c2.3,1.8,4.9,2.7,7.5,2.7c3.5,0,6.9-1.6,9.3-4.4l67.9-83.2c-0.8,6.6-1.3,13.3-1.3,20.1
			c0,42.4,16.5,82.4,46.5,112.4s70,46.5,112.4,46.5c6.8,0,13.6-0.5,20.2-1.3L220.6,526.1c1.7-7.5,2.5-15.3,2.5-23.3
			c0-61.3-49.8-111.2-111.2-111.2c-8,0-15.8,0.8-23.3,2.5l76.4-93.4c4.2-5.1,3.5-12.7-1.7-16.9c-5.1-4.2-12.7-3.5-16.9,1.7L32,426.1
			c-19.1,20-31,47-31,76.7C1,564.2,50.8,614,112.2,614c29.4,0,56.3-11.5,76.1-30.2l359.2-294.2c6.6-4.9,12.9-10.3,18.9-16.1
			c24.4-24.4,39.8-55.1,44.8-89.1C616.1,151.1,610.6,117.7,595.2,88.1z M112.2,590.1c-48.1,0-87.3-39.1-87.3-87.3
			s39.1-87.3,87.3-87.3c48.1,0,87.3,39.1,87.3,87.3S160.3,590.1,112.2,590.1z"/>
	</g>
</g>
<g>
	<g>
		
			<linearGradient id="SVGID_5_" gradientUnits="userSpaceOnUse" x1="112.1253" y1="41.8" x2="112.1253" y2="184.6" gradientTransform="matrix(1 0 0 -1 0 616)">
			<stop  offset="0" style="stop-color:#FAA437"/>
			<stop  offset="1" style="stop-color:#F2673A"/>
		</linearGradient>
		<path fill="url(#SVGID_5_)" d="M178,492c2.5-3.1,3.3-7.4,2-11.2c-1.2-3.8-4.4-6.8-8.2-7.9c-7.8-2-13.1-9.4-12.8-17.6
			c0.2-4.1-1.7-7.9-4.9-10.3c-3.2-2.4-7.5-3-11.4-1.4c-7.5,2.9-16.3,0.1-20.6-6.7c-2.2-3.3-6-5.5-10-5.5s-7.9,2-10,5.5
			c-4.4,6.8-13,9.6-20.6,6.7c-3.8-1.4-8-1-11.4,1.4c-3.2,2.4-5.1,6.2-4.9,10.3c0.5,8.1-4.9,15.4-12.8,17.6c-3.9,1.1-7.1,3.9-8.2,7.9
			c-1.2,3.8-0.5,8.1,2.2,11.2c5.1,6.3,5.1,15.4,0,21.6c-2.5,3.1-3.3,7.4-2.2,11.2c1.2,3.8,4.4,6.8,8.2,7.9c7.8,2,13.1,9.4,12.8,17.6
			c-0.2,4.1,1.7,7.9,4.9,10.3c3.2,2.4,7.5,3,11.4,1.4c7.5-2.9,16.3-0.1,20.6,6.7c2.2,3.3,6,5.5,10,5.5s7.9-2,10-5.5
			c4.4-6.8,13-9.6,20.6-6.7c3.8,1.4,8,1,11.4-1.4c3.2-2.4,5.1-6.2,4.9-10.3c-0.5-8.1,4.9-15.4,12.8-17.6c3.9-1.1,7.1-3.9,8.2-7.9
			c1.2-3.8,0.5-8.1-2-11.2C172.9,507.4,172.9,498.3,178,492z M152.4,516c-7.3,5.1-12.7,12.7-15.4,21.2c-0.1,0-0.2,0-0.2,0
			c-8.8,0-17.5,2.9-24.6,8.1c-7.1-5.3-15.8-8.1-24.6-8.1c-0.1,0-0.2,0-0.2,0c-2.7-8.5-8.1-16-15.4-21.2c2.9-8.5,2.9-17.7,0-26.2
			c7.3-5.1,12.7-12.7,15.4-21.2c0.1,0,0.2,0,0.2,0c8.8,0,17.5-2.9,24.6-8.1c7.1,5.3,15.8,8.1,24.6,8.1c0.1,0,0.2,0,0.2,0
			c2.7,8.5,8.1,16,15.4,21.2C149.6,498.3,149.6,507.5,152.4,516z"/>
	</g>
</g>
<g>
	<g>
		
			<linearGradient id="SVGID_6_" gradientUnits="userSpaceOnUse" x1="112.2" y1="101.2" x2="112.2" y2="125.2" gradientTransform="matrix(1 0 0 -1 0 616)">
			<stop  offset="0" style="stop-color:#FAA437"/>
			<stop  offset="1" style="stop-color:#F2673A"/>
		</linearGradient>
		<path fill="url(#SVGID_6_)" d="M120.7,494.3c-2.3-2.3-5.3-3.5-8.5-3.5s-6.2,1.3-8.5,3.5c-2.3,2.3-3.5,5.3-3.5,8.5s1.3,6.2,3.5,8.5
			c2.3,2.3,5.3,3.5,8.5,3.5s6.2-1.3,8.5-3.5c2.3-2.3,3.5-5.3,3.5-8.5S122.8,496.6,120.7,494.3z"/>
	</g>
</g>
<line fill="none" stroke="#010101" stroke-width="20" stroke-miterlimit="10" x1="248" y1="178.5" x2="248" y2="178.5"/>
<line fill="none" stroke="#010101" stroke-width="20" stroke-miterlimit="10" x1="245.7" y1="181.5" x2="245.7" y2="181.5"/>
<path fill="none" stroke="#F2612E" stroke-width="20" stroke-miterlimit="10" d="M583.7,93.1c-0.1,0-1.2,0-1.2,0"/>
<path fill="none" stroke="#F2612E" stroke-width="20" stroke-miterlimit="10" d="M583.7,93.1c-0.2,0-1.2,0-1.2,0"/>
<path fill="none" stroke="#F2612E" stroke-width="20" stroke-miterlimit="10" d="M583.7,93.1c-0.8,0-1.2,0-1.2,0"/>
<linearGradient id="SVGID_7_" gradientUnits="userSpaceOnUse" x1="162.3" y1="88.788" x2="162.3" y2="572.0406" gradientTransform="matrix(1 0 0 -1 0 616)">
	<stop  offset="0" style="stop-color:#FAA437"/>
	<stop  offset="1" style="stop-color:#F2673A"/>
</linearGradient>
<polygon fill="url(#SVGID_7_)" points="242.3,168.4 260.7,183.3 82.2,402.2 63.9,387.2 "/>
</svg>
