<?xml version="1.0" encoding="utf-8"?>
<!-- Generator: Adobe Illustrator 17.1.0, SVG Export Plug-In . SVG Version: 6.00 Build 0)  -->
<!DOCTYPE svg PUBLIC "-//W3C//DTD SVG 1.1//EN" "http://www.w3.org/Graphics/SVG/1.1/DTD/svg11.dtd">
<svg version="1.1" id="Layer_1" xmlns="http://www.w3.org/2000/svg" xmlns:xlink="http://www.w3.org/1999/xlink" x="0px" y="0px"
	 viewBox="0 0 614 614" enable-background="new 0 0 614 614" xml:space="preserve">
<g>
	<g>
		<g>
			<linearGradient id="SVGID_1_" gradientUnits="userSpaceOnUse" x1="108.1598" y1="286.5602" x2="108.1598" y2="153.8805">
				<stop  offset="0" style="stop-color:#FAA437"/>
				<stop  offset="1" style="stop-color:#F2673A"/>
			</linearGradient>
			<linearGradient id="SVGID_2_" gradientUnits="userSpaceOnUse" x1="41.7547" y1="220.2203" x2="174.5648" y2="220.2203">
				<stop  offset="0" style="stop-color:#FAA437"/>
				<stop  offset="1" style="stop-color:#F2673A"/>
			</linearGradient>
			<path fill="url(#SVGID_1_)" stroke="url(#SVGID_2_)" stroke-width="0.25" stroke-miterlimit="10" d="M174.4,174.3
				c0-11.2-9.1-20.3-20.4-20.4H62.3c-11.2,0-20.3,9.1-20.4,20.4v91.8c0,11.2,9.1,20.3,20.4,20.4H154c11.2,0,20.3-9.1,20.4-20.4
				V174.3z M62.3,266.1v-91.8H154v91.8H62.3z"/>
			<linearGradient id="SVGID_3_" gradientUnits="userSpaceOnUse" x1="261.1" y1="286.5602" x2="261.1" y2="153.8805">
				<stop  offset="0" style="stop-color:#FAA437"/>
				<stop  offset="1" style="stop-color:#F2673A"/>
			</linearGradient>
			<linearGradient id="SVGID_4_" gradientUnits="userSpaceOnUse" x1="194.6352" y1="220.2203" x2="327.5648" y2="220.2203">
				<stop  offset="0" style="stop-color:#FAA437"/>
				<stop  offset="1" style="stop-color:#F2673A"/>
			</linearGradient>
			<path fill="url(#SVGID_3_)" stroke="url(#SVGID_4_)" stroke-width="0.25" stroke-miterlimit="10" d="M321.5,159.9
				c-0.1-0.1-0.2-0.1-0.4-0.2c-3.8-3.6-8.8-5.6-14.1-5.7h-91.8c-5.3,0-10.3,2-14.1,5.7c-0.1,0.1-0.2,0.1-0.4,0.2
				c-0.1,0.1-0.1,0.2-0.2,0.4c-3.6,3.8-5.6,8.8-5.7,14.1v91.8c0,5.3,2,10.3,5.7,14.1c0.1,0.1,0.1,0.2,0.2,0.4
				c0.1,0.1,0.2,0.1,0.4,0.2c3.8,3.6,8.8,5.6,14.1,5.7H307c5.3,0,10.3-2,14.1-5.7c0.1-0.1,0.2-0.1,0.4-0.2c0.1-0.1,0.1-0.2,0.2-0.4
				c3.6-3.8,5.6-8.8,5.7-14.1v-91.8c0-5.3-2-10.3-5.7-14.1C321.6,160.2,321.6,160,321.5,159.9z M292.5,174.3l-31.4,31.4l-31.4-31.4
				H292.5L292.5,174.3z M215.2,188.8l31.4,31.4l-31.4,31.4V188.8z M229.7,266.1l31.4-31.4l31.4,31.4H229.7z M275.6,220.2l31.4-31.4
				v63L275.6,220.2z"/>
			<linearGradient id="SVGID_5_" gradientUnits="userSpaceOnUse" x1="108.1598" y1="449.7203" x2="108.1598" y2="317.0406">
				<stop  offset="0" style="stop-color:#FAA437"/>
				<stop  offset="1" style="stop-color:#F2673A"/>
			</linearGradient>
			<linearGradient id="SVGID_6_" gradientUnits="userSpaceOnUse" x1="41.7547" y1="383.3805" x2="174.5648" y2="383.3805">
				<stop  offset="0" style="stop-color:#FAA437"/>
				<stop  offset="1" style="stop-color:#F2673A"/>
			</linearGradient>
			<path fill="url(#SVGID_5_)" stroke="url(#SVGID_6_)" stroke-width="0.25" stroke-miterlimit="10" d="M154,317H62.3
				c-11.2,0-20.3,9.1-20.4,20.4v91.8c0,11.2,9.1,20.3,20.4,20.4H154c11.2,0,20.3-9.1,20.4-20.4v-91.8C174.4,326.2,165.4,317,154,317
				z M62.3,429.3v-91.8H154v91.8H62.3L62.3,429.3z"/>
			<linearGradient id="SVGID_7_" gradientUnits="userSpaceOnUse" x1="261.0402" y1="449.7203" x2="261.0402" y2="317.0406">
				<stop  offset="0" style="stop-color:#FAA437"/>
				<stop  offset="1" style="stop-color:#F2673A"/>
			</linearGradient>
			<linearGradient id="SVGID_8_" gradientUnits="userSpaceOnUse" x1="194.6351" y1="383.3805" x2="327.4453" y2="383.3805">
				<stop  offset="0" style="stop-color:#FAA437"/>
				<stop  offset="1" style="stop-color:#F2673A"/>
			</linearGradient>
			<path fill="url(#SVGID_7_)" stroke="url(#SVGID_8_)" stroke-width="0.25" stroke-miterlimit="10" d="M307,317h-91.8
				c-11.2,0-20.3,9.1-20.4,20.4v91.8c0,11.2,9.1,20.3,20.4,20.4h71.4c5.6,0,10.2-4.5,10.2-10.2s-4.5-10.2-10.2-10.2h-71.4v-91.8H307
				v51c0,2.7,1.1,5.3,3,7.2s4.5,3,7.2,3c2.7,0,5.3-1.1,7.2-3s3-4.5,3-7.2v-51C327.3,326.2,318.2,317,307,317z"/>
			<linearGradient id="SVGID_9_" gradientUnits="userSpaceOnUse" x1="414.1" y1="286.6797" x2="414.1" y2="153.8805">
				<stop  offset="0" style="stop-color:#FAA437"/>
				<stop  offset="1" style="stop-color:#F2673A"/>
			</linearGradient>
			<linearGradient id="SVGID_10_" gradientUnits="userSpaceOnUse" x1="347.6352" y1="220.2801" x2="480.5648" y2="220.2801">
				<stop  offset="0" style="stop-color:#FAA437"/>
				<stop  offset="1" style="stop-color:#F2673A"/>
			</linearGradient>
			<path fill="url(#SVGID_9_)" stroke="url(#SVGID_10_)" stroke-width="0.25" stroke-miterlimit="10" d="M368.2,154
				c-11.2,0-20.3,9.1-20.4,20.4v91.8c0,11.2,9.1,20.3,20.4,20.4H460c11.2,0,20.3-9.1,20.4-20.4v-91.9c0-11.2-9.1-20.3-20.4-20.4
				h-91.8V154z M368.2,266.1v-91.8H460v91.8H368.2z"/>
			<linearGradient id="SVGID_11_" gradientUnits="userSpaceOnUse" x1="261.1" y1="500.6407" x2="261.1" y2="1">
				<stop  offset="0" style="stop-color:#FAA437"/>
				<stop  offset="1" style="stop-color:#F2673A"/>
			</linearGradient>
			<linearGradient id="SVGID_12_" gradientUnits="userSpaceOnUse" x1="0.9945" y1="250.8203" x2="521.2055" y2="250.8203">
				<stop  offset="0" style="stop-color:#FAA437"/>
				<stop  offset="1" style="stop-color:#F2673A"/>
			</linearGradient>
			<path fill="url(#SVGID_11_)" stroke="url(#SVGID_12_)" stroke-width="0.25" stroke-miterlimit="10" d="M296.8,480.2H31.7
				c-5.6,0-10.2-4.5-10.2-10.2V123.4h479.2v142.7c0,5.6,4.5,10.2,10.2,10.2c5.6,0,10.2-4.5,10.2-10.2V62.2
				c0-16.9-13.7-30.6-30.6-30.6H470V21.4C470,10.2,461,1.1,449.6,1H419c-11.2,0-20.3,9.1-20.4,20.4v10.2h-102V21.4
				c0-11.2-9.1-20.3-20.4-20.4h-30.6c-11.2,0-20.3,9.1-20.4,20.4v10.2h-102V21.4c0-11.2-9.1-20.3-20.4-20.4H72.5
				C61.2,1,52.2,10.1,52,21.4v10.2H31.7c-16.9,0-30.6,13.7-30.6,30.6V470c0,16.9,13.7,30.6,30.6,30.6h265.1
				c5.6,0,10.2-4.5,10.2-10.2S302.5,480.2,296.8,480.2z M419.1,21.4h30.6v20.3l0,0l0,0v20.3h-30.6V21.4L419.1,21.4z M245.8,21.4
				h30.6v20.3l0,0l0,0v20.3h-30.6V21.4L245.8,21.4z M72.5,21.4h30.6v20.3l0,0l0,0v20.3H72.5V21.4z M21.4,62.2
				C21.4,56.6,26,52,31.6,52H52v10.2c0,11.2,9.1,20.3,20.4,20.4h30.6c11.2,0,20.3-9.1,20.4-20.4V52h102v10.2
				c0,11.2,9.1,20.3,20.4,20.4h30.6c11.2,0,20.3-9.1,20.4-20.4V52h102v10.2c0,11.2,9.1,20.3,20.4,20.4H450
				c11.2,0,20.3-9.1,20.4-20.4V52h20.4c5.6,0,10.2,4.5,10.2,10.2V103H21.4V62.2z"/>
			<linearGradient id="SVGID_13_" gradientUnits="userSpaceOnUse" x1="470.1601" y1="613" x2="470.1601" y2="296.7203">
				<stop  offset="0" style="stop-color:#FAA437"/>
				<stop  offset="1" style="stop-color:#F2673A"/>
			</linearGradient>
			<linearGradient id="SVGID_14_" gradientUnits="userSpaceOnUse" x1="327.2667" y1="454.8601" x2="613.0536" y2="454.8601">
				<stop  offset="0" style="stop-color:#FAA437"/>
				<stop  offset="1" style="stop-color:#F2673A"/>
			</linearGradient>
			<path fill="url(#SVGID_13_)" stroke="url(#SVGID_14_)" stroke-width="0.25" stroke-miterlimit="10" d="M542.8,347.4L542.8,347.4
				l7.8-15.5c1.7-3.2,1.4-7.2-0.6-10.2s-5.5-4.8-9.1-4.5s-6.9,2.4-8.5,5.6l-7.8,15.4c-14.1-5.9-29-9.3-44.3-10.4V317h20.4
				c5.6,0,10.2-4.5,10.2-10.2s-4.5-10.2-10.2-10.2h-61.2c-5.6,0-10.2,4.5-10.2,10.2s4.5,10.2,10.2,10.2H460v10.8
				c-15.3,1.1-30.2,4.5-44.3,10.4l-7.8-15.4c-1.7-3.2-4.9-5.4-8.5-5.6s-7.2,1.6-9.1,4.5c-2,3-2.3,6.9-0.6,10.2l7.8,15.5
				c-55.3,32.8-82,98.5-65,160.5S405.9,613,470.2,613s120.7-43,137.7-105.1S598.2,380.2,542.8,347.4z M470.2,592.4
				c-67.5,0-122.4-54.7-122.4-122.4s54.7-122.4,122.4-122.4S592.6,402.4,592.6,470C592.4,537.6,537.7,592.3,470.2,592.4z"/>
			<linearGradient id="SVGID_15_" gradientUnits="userSpaceOnUse" x1="470.1602" y1="572.0008" x2="470.1602" y2="368.0805">
				<stop  offset="0" style="stop-color:#FAA437"/>
				<stop  offset="1" style="stop-color:#F2673A"/>
			</linearGradient>
			<linearGradient id="SVGID_16_" gradientUnits="userSpaceOnUse" x1="368.075" y1="470.0406" x2="572.2453" y2="470.0406">
				<stop  offset="0" style="stop-color:#FAA437"/>
				<stop  offset="1" style="stop-color:#F2673A"/>
			</linearGradient>
			<path fill="url(#SVGID_15_)" stroke="url(#SVGID_16_)" stroke-width="0.25" stroke-miterlimit="10" d="M470.2,368.1
				c-56.3,0-102,45.7-102,102s45.7,102,102,102s102-45.7,102-102C572,413.7,526.5,368.1,470.2,368.1z M470.2,551.6
				c-45.1,0-81.5-36.6-81.5-81.5s36.6-81.5,81.5-81.5s81.5,36.6,81.5,81.5C551.7,515.1,515.1,551.6,470.2,551.6z"/>
			<linearGradient id="SVGID_17_" gradientUnits="userSpaceOnUse" x1="485.393" y1="510.7561" x2="485.393" y2="408.9601">
				<stop  offset="0" style="stop-color:#FAA437"/>
				<stop  offset="1" style="stop-color:#F2673A"/>
			</linearGradient>
			<linearGradient id="SVGID_18_" gradientUnits="userSpaceOnUse" x1="459.875" y1="459.8581" x2="510.911" y2="459.8581">
				<stop  offset="0" style="stop-color:#FAA437"/>
				<stop  offset="1" style="stop-color:#F2673A"/>
			</linearGradient>
			<path fill="url(#SVGID_17_)" stroke="url(#SVGID_18_)" stroke-width="0.25" stroke-miterlimit="10" d="M480.3,465.9v-46.7
				c0-5.6-4.5-10.2-10.2-10.2s-10.2,4.5-10.2,10.2v51c0,2.7,1.1,5.3,3,7.2l30.5,30.5c3.9,3.9,10.4,3.9,14.3-0.1
				c3.9-3.9,3.9-10.4,0.1-14.3L480.3,465.9z"/>
		</g>
	</g>
</g>
</svg>
