<?xml version="1.0" encoding="utf-8"?>
<!-- Generator: Adobe Illustrator 17.1.0, SVG Export Plug-In . SVG Version: 6.00 Build 0)  -->
<!DOCTYPE svg PUBLIC "-//W3C//DTD SVG 1.1//EN" "http://www.w3.org/Graphics/SVG/1.1/DTD/svg11.dtd">
<svg version="1.1" id="Layer_1" xmlns="http://www.w3.org/2000/svg" xmlns:xlink="http://www.w3.org/1999/xlink" x="0px" y="0px"
	 viewBox="0 0 426 512" enable-background="new 0 0 426 512" xml:space="preserve">
<g>
	<g>
		<linearGradient id="SVGID_1_" gradientUnits="userSpaceOnUse" x1="213.1935" y1="512" x2="213.1935" y2="-9.094947e-013">
			<stop  offset="0" style="stop-color:#FAA437"/>
			<stop  offset="0.9951" style="stop-color:#F2673A"/>
		</linearGradient>
		<path fill="url(#SVGID_1_)" d="M417.5,396.4v-18.6c0-27-19.7-50.1-47.9-56.3L266.5,299v-16.5c19.6-11.9,34.3-30.2,40.8-51.8
			c22-2.4,39.2-19.7,39.2-40.8v-66.1C346.4,55.6,286.7,0,213.2,0S79.9,55.6,79.9,123.9v66.1c0,21.1,17.2,38.4,39.2,40.8
			c6.4,21.5,21.1,39.8,40.8,51.8V299L56.8,321.5c-28.2,6.2-47.9,29.3-47.9,56.3v18.6H0v49.5h17.8V512h390.9v-66.1h17.8v-49.5H417.5z
			 M346.4,333.5l19.1,4.2c20.2,4.4,34.2,20.9,34.2,40.2v18.6h-53.3V333.5z M310.5,213.3c0.2-2.3,0.4-4.5,0.4-6.8v-39.8
			c10.3,3.4,17.8,12.5,17.8,23.3C328.7,200.8,321,210,310.5,213.3z M328.7,157.1c-5.2-3.7-11.2-6.4-17.8-7.6v-17.4h17.8V157.1z
			 M328.2,115.6h-44.4c-2.7-45.2-26.4-77.8-44.7-96.3C287.6,29.8,324.3,68.4,328.2,115.6z M291.5,132.1c-7.6,18.6-40.4,33-78.3,33
			s-70.6-14.5-78.3-33H291.5z M213.2,18.9c13.5,10.9,49.3,44.6,52.9,96.7H160.3C163.9,63.6,199.7,29.8,213.2,18.9z M97.7,132.1h17.8
			v17.4c-6.6,1.3-12.6,4-17.8,7.6V132.1z M97.7,189.9c0-10.8,7.5-19.8,17.8-23.3v39.8c0,2.3,0.2,4.6,0.4,6.8
			C105.3,210,97.7,200.8,97.7,189.9z M98.2,115.6c3.9-47.2,40.7-85.9,89-96.3c-18.2,18.5-42,51-44.7,96.3H98.2z M133.2,206.5v-49
			c8.3,6.9,19,12.7,31.7,16.9c-2.9,1.3-5,4.1-5,7.3c0,4.6,4,8.3,8.9,8.3c4.9,0,8.9-3.7,8.9-8.3c0-1.6-0.6-2.9-1.4-4.2
			c11.3,2.7,23.8,4.2,36.9,4.2s25.6-1.5,36.9-4.2c-0.8,1.2-1.4,2.6-1.4,4.2c0,4.6,4,8.3,8.9,8.3c4.9,0,8.9-3.7,8.9-8.3
			c0-3.3-2.1-6-5-7.4c12.6-4.2,23.4-9.9,31.7-16.9v49c0,41-35.9,74.3-79.9,74.3S133.2,247.4,133.2,206.5z M177.7,301.6V291
			c11,4,23,6.3,35.5,6.3c12.5,0,24.5-2.3,35.5-6.3v10.6L213.2,328L177.7,301.6z M199,338.6l-25.3,18.8l-12.8-41.6l5.7-1.3L199,338.6
			z M259.8,314.5l5.7,1.3l-12.8,41.6l-25.3-18.8L259.8,314.5z M133.2,321.8l10.3-2.3l20.4,66.3l49.3-36.7l49.3,36.7l20.4-66.3
			l10.3,2.2v79.4l-8.9,8.3v-9.9L231,374.8v59.5l-3.7,3.4h-28.2l-3.7-3.4v-59.5l-53.3,24.8v9.9l-8.9-8.3V321.8z M79.9,495.5H35.5
			v-49.5h44.4V495.5z M79.9,429.4H17.8v-16.5h62.2V429.4z M79.9,396.4H26.6v-18.6c0-19.3,14.1-35.8,34.2-40.2l19.1-4.2V396.4z
			 M177.7,495.5H97.7V329.6l17.8-3.9v82.4l26.6,24.8v24.8l35.5,33V495.5z M231,495.5h-35.5v-11.7l-35.5-33v-41l17.8-8.3v39.6
			l14.1,13.1h42.9l14.1-13.1v-39.6l17.8,8.3v41l-35.5,33V495.5z M328.7,495.5h-79.9v-4.8l35.5-33v-24.8l26.6-24.8v-82.4l17.8,3.9
			V495.5z M390.9,495.5h-44.4v-49.5h44.4V495.5z M408.6,429.4h-62.2v-16.5h62.2V429.4z"/>
	</g>
</g>
<g>
	<g>
		<linearGradient id="SVGID_2_" gradientUnits="userSpaceOnUse" x1="213.1935" y1="256" x2="213.1935" y2="222.9677">
			<stop  offset="0" style="stop-color:#FAA437"/>
			<stop  offset="0.9951" style="stop-color:#F2673A"/>
		</linearGradient>
		<path fill="url(#SVGID_2_)" d="M231,223c0,9.1-8,16.5-17.8,16.5s-17.8-7.4-17.8-16.5h-17.8c0,18.2,15.9,33,35.5,33
			s35.5-14.8,35.5-33H231z"/>
	</g>
</g>
</svg>
