<?xml version="1.0" encoding="utf-8"?>
<!-- Generator: Adobe Illustrator 17.1.0, SVG Export Plug-In . SVG Version: 6.00 Build 0)  -->
<!DOCTYPE svg PUBLIC "-//W3C//DTD SVG 1.1//EN" "http://www.w3.org/Graphics/SVG/1.1/DTD/svg11.dtd">
<svg version="1.1" id="Layer_1" xmlns="http://www.w3.org/2000/svg" xmlns:xlink="http://www.w3.org/1999/xlink" x="0px" y="0px"
	 viewBox="7.3 -1.7 106 108.3" enable-background="new 7.3 -1.7 106 108.3" xml:space="preserve">
<g>
	
		<linearGradient id="SVGID_1_" gradientUnits="userSpaceOnUse" x1="210.0503" y1="-322.1" x2="210.0503" y2="103.925" gradientTransform="matrix(0.2448 0 0 -0.2448 8.6014 25.6993)">
		<stop  offset="0" style="stop-color:#FAA436"/>
		<stop  offset="1" style="stop-color:#F26739"/>
	</linearGradient>
	<linearGradient id="SVGID_2_" gradientUnits="userSpaceOnUse" x1="60.0123" y1="105.285" x2="60.0123" y2="-0.4869">
		<stop  offset="0" style="stop-color:#FAA436"/>
		<stop  offset="1" style="stop-color:#F26739"/>
	</linearGradient>
	<path fill="url(#SVGID_1_)" stroke="url(#SVGID_2_)" stroke-width="1.5" stroke-miterlimit="10" d="M110.7,0.8
		c-0.7-0.7-1.8-0.7-2.5,0l-6.4,6.4H61.4L10.5,58.5c-1.2,1.2-1.8,2.7-1.8,4.3s0.6,3.2,1.8,4.3l35.6,35.6c1.2,1.2,2.8,1.8,4.3,1.8
		s3.2-0.6,4.4-1.8l49.5-50.9V9.6l6.4-6.4C111.4,2.5,111.4,1.4,110.7,0.8z M100.8,50.4l-48.5,49.8c-1,1-2.7,1-3.7,0L13,64.7
		c-0.5-0.5-0.8-1.2-0.8-1.9s0.3-1.4,0.8-1.9l49.9-50.2h35.5L90,19.1c-1.4-0.9-3-1.4-4.8-1.4c-4.8,0-8.7,3.9-8.7,8.7s3.9,8.7,8.7,8.7
		c4.8,0,8.7-3.9,8.7-8.7c0-1.8-0.5-3.4-1.4-4.8l8.4-8.4L100.8,50.4L100.8,50.4z M90.4,26.3c0,2.9-2.3,5.2-5.2,5.2
		c-2.9,0-5.2-2.3-5.2-5.2s2.3-5.2,5.2-5.2c0.8,0,1.5,0.2,2.3,0.5L84,25.1c-0.7,0.7-0.7,1.8,0,2.5c0.3,0.3,0.8,0.5,1.2,0.5
		c0.4,0,0.9-0.2,1.2-0.5l3.5-3.5C90.2,24.8,90.4,25.5,90.4,26.3z"/>
	
		<linearGradient id="SVGID_3_" gradientUnits="userSpaceOnUse" x1="197.35" y1="-217.5" x2="197.35" y2="-27.2653" gradientTransform="matrix(0.2448 0 0 -0.2448 8.6014 25.6993)">
		<stop  offset="0" style="stop-color:#FAA436"/>
		<stop  offset="1" style="stop-color:#F26739"/>
	</linearGradient>
	<linearGradient id="SVGID_4_" gradientUnits="userSpaceOnUse" x1="56.9038" y1="79.6836" x2="56.9038" y2="31.6226">
		<stop  offset="0" style="stop-color:#FAA436"/>
		<stop  offset="1" style="stop-color:#F26739"/>
	</linearGradient>
	<path fill="url(#SVGID_3_)" stroke="url(#SVGID_4_)" stroke-width="1.5" stroke-miterlimit="10" d="M78.1,37c0.7-0.7,0.7-1.8,0-2.5
		c-0.7-0.7-1.8-0.7-2.5,0l-1.3,1.3c-3.1-2.5-7-3.7-11.1-3.4c-2.8,0.2-5.3,1.6-7.1,3.8c-1.9,2.3-2.7,5.3-2.3,8.2L55.1,55L39.5,70.6
		c-3.6-4.8-3.2-11.6,1.1-15.9c0.7-0.7,0.7-1.8,0-2.5c-0.7-0.7-1.8-0.7-2.5,0c-5.7,5.7-6.1,14.7-1.2,20.8l-2,2
		c-0.7,0.7-0.7,1.8,0,2.5c0.3,0.3,0.8,0.5,1.2,0.5s0.9-0.2,1.2-0.5l2-2c2.8,2.2,6.2,3.4,9.8,3.4c0.4,0,0.9,0,1.3,0
		c2.8-0.2,5.3-1.6,7.1-3.8c1.9-2.3,2.7-5.3,2.3-8.2l-1.3-10.6l15.6-15.6c3.6,4.8,3.2,11.6-1.2,15.9c-0.7,0.7-0.7,1.8,0,2.5
		c0.7,0.7,1.8,0.7,2.5,0c5.7-5.7,6.1-14.7,1.2-20.8L78.1,37z M56.6,67.3c0.2,2-0.3,4-1.6,5.6c-1.2,1.5-2.9,2.4-4.7,2.5
		c-3,0.2-5.9-0.6-8.3-2.4l13.6-13.6L56.6,67.3z M57.2,44c-0.2-2,0.3-4,1.6-5.6c1.2-1.5,2.9-2.4,4.7-2.5c3-0.2,5.9,0.6,8.3,2.4
		L58.2,51.9L57.2,44z"/>
</g>
</svg>
