<?xml version="1.0" encoding="utf-8"?>
<!-- Generator: Adobe Illustrator 17.1.0, SVG Export Plug-In . SVG Version: 6.00 Build 0)  -->
<!DOCTYPE svg PUBLIC "-//W3C//DTD SVG 1.1//EN" "http://www.w3.org/Graphics/SVG/1.1/DTD/svg11.dtd">
<svg version="1.1" id="Layer_1" xmlns="http://www.w3.org/2000/svg" xmlns:xlink="http://www.w3.org/1999/xlink" x="0px" y="0px"
	 viewBox="10 -1.5 99.8 108.2" enable-background="new 10 -1.5 99.8 108.2" xml:space="preserve">
<linearGradient id="SVGID_1_" gradientUnits="userSpaceOnUse" x1="190.6065" y1="-305.8" x2="190.6065" y2="103.025" gradientTransform="matrix(0.2549 0 0 -0.2549 11.4502 26.7597)">
	<stop  offset="4.901961e-003" style="stop-color:#FAA436"/>
	<stop  offset="1" style="stop-color:#F26739"/>
</linearGradient>
<linearGradient id="SVGID_2_" gradientUnits="userSpaceOnUse" x1="190.6065" y1="-306.8" x2="190.6065" y2="104.025" gradientTransform="matrix(0.2549 0 0 -0.2549 11.4502 26.7597)">
	<stop  offset="4.901961e-003" style="stop-color:#FAA436"/>
	<stop  offset="1" style="stop-color:#F26739"/>
</linearGradient>
<path fill="url(#SVGID_1_)" stroke="url(#SVGID_2_)" stroke-width="2" stroke-miterlimit="10" d="M107.9,88.7L90.2,60l6.7-3.5
	c0.5-0.3,0.7-0.9,0.6-1.4l-2.4-7.6l5.1-6.1c0.4-0.4,0.4-1.1,0-1.5l-5.1-6.1l2.4-7.6c0.2-0.5-0.1-1.1-0.6-1.4l-7-3.7l-0.7-8
	c-0.1-0.6-0.5-1-1.1-1.1l-7.9-0.7l-3.7-7.1c-0.3-0.5-0.9-0.7-1.4-0.6l-7.6,2.4l-6.2-5.1c-0.4-0.4-1.1-0.4-1.5,0l-6.1,5.1L46,3.5
	c-0.5-0.2-1.1,0.1-1.4,0.6l-3.7,7L33,11.9c-0.6,0.1-1,0.5-1.1,1.1l-0.7,7.9L24,24.6c-0.5,0.3-0.7,0.9-0.6,1.4l2.3,7.6l-5.1,6.1
	c-0.4,0.4-0.4,1.1,0,1.5l5.1,6.2L23.4,55c-0.2,0.5,0.1,1.1,0.6,1.4l5.9,3.1L12.1,88.7c-0.3,0.4-0.3,0.9,0,1.3
	c0.3,0.4,0.7,0.6,1.2,0.5l17-2.1l4.5,15.4c0.2,0.4,0.5,0.8,1,0.8c0.1,0,0.1,0,0.2,0c0.4,0,0.8-0.2,1-0.6l17.5-28.2l5.3,4.3
	c0.3,0.2,0.5,0.3,0.8,0.3s0.5-0.1,0.8-0.3l4.5-3.7l17.4,27.5c0.3,0.3,0.6,0.5,1,0.5c0.1,0,0.1,0,0.2,0c0.5-0.1,0.8-0.4,1-0.8
	l4.5-15.4l17,2.1c0.4,0.1,0.9-0.2,1.2-0.5C108.2,89.6,108.2,89.1,107.9,88.7z M36.3,100.6l-4-13.8c-0.2-0.6-0.7-0.9-1.3-0.9
	l-15.6,1.9L31.2,62l0.6,6.1c0.1,0.6,0.5,1,1.1,1.1l7.9,0.7l3.7,7c0.3,0.5,0.9,0.7,1.4,0.6l5.8-1.8L36.3,100.6z M60.4,77.8L54.5,73
	c-0.2-0.2-0.5-0.3-0.8-0.3c-0.1,0-0.3,0-0.3,0.1L46.1,75l-3.5-6.8c-0.2-0.3-0.5-0.6-0.9-0.6l-7.6-0.7l-0.7-7.6
	c-0.1-0.4-0.3-0.8-0.6-0.9L26,54.9l2.3-7.3c0.1-0.4,0.1-0.8-0.3-1.1l-4.9-5.9l4.9-5.9c0.3-0.3,0.3-0.7,0.3-1.1l-2.3-7.3l6.8-3.5
	c0.3-0.2,0.6-0.5,0.6-0.9l0.7-7.6l7.6-0.7c0.4-0.1,0.8-0.3,0.9-0.6l3.6-6.8l7.3,2.2c0.4,0.1,0.8,0.1,1.1-0.3l5.9-4.9l5.9,4.9
	c0.3,0.3,0.7,0.3,1.1,0.3l7.3-2.2l3.5,6.8c0.2,0.3,0.5,0.6,0.9,0.6l7.6,0.7l0.7,7.6c0.1,0.4,0.3,0.8,0.6,0.9l6.8,3.5l-2.3,7.3
	c-0.1,0.4-0.1,0.8,0.3,1.1l4.9,5.9l-4.9,5.9c-0.3,0.3-0.3,0.7-0.3,1.1l2.3,7.3l-6.8,3.5c-0.3,0.2-0.6,0.5-0.6,0.9l-0.7,7.6l-7.6,0.7
	c-0.4,0.1-0.8,0.3-0.9,0.6l-3.5,6.8l-7.3-2.2c-0.4-0.1-0.8-0.1-1.1,0.3L60.4,77.8z M89,85.9c-0.6-0.1-1.1,0.3-1.3,0.8l-4,13.8
	l-16-25.3l7.3,2.3c0.5,0.2,1.1-0.1,1.4-0.6l3.7-7l7.9-0.7c0.6-0.1,1-0.5,1.1-1.1l0.4-4.8l15.1,24.5L89,85.9z"/>
<g>
	
		<linearGradient id="SVGID_3_" gradientUnits="userSpaceOnUse" x1="320.7789" y1="-22.8" x2="320.7789" y2="83.0331" gradientTransform="matrix(0.2549 0 0 -0.2549 11.4502 26.7597)">
		<stop  offset="4.901961e-003" style="stop-color:#FAA436"/>
		<stop  offset="1" style="stop-color:#F26739"/>
	</linearGradient>
	
		<linearGradient id="SVGID_4_" gradientUnits="userSpaceOnUse" x1="320.7789" y1="-23.8" x2="320.7789" y2="84.0331" gradientTransform="matrix(0.2549 0 0 -0.2549 11.4502 26.7597)">
		<stop  offset="4.901961e-003" style="stop-color:#FAA436"/>
		<stop  offset="1" style="stop-color:#F26739"/>
	</linearGradient>
	<path fill="url(#SVGID_3_)" stroke="url(#SVGID_4_)" stroke-width="2" stroke-miterlimit="10" d="M100.3,32.6c-0.1,0-0.3,0-0.3-0.1
		c-0.6-0.2-1-0.8-0.8-1.5l2.4-8.3l-8-3.9c-0.3-0.2-0.6-0.5-0.7-0.9l-1.1-9.1L83.4,8c-0.6-0.1-1.1-0.6-1.1-1.3
		c0.1-0.6,0.6-1.1,1.3-1.1l9.3,0.9c0.5,0.1,1,0.5,1.1,1l1.2,9.5l8.3,4.1c0.5,0.3,0.8,0.8,0.6,1.4l-2.7,9.2
		C101.3,32.2,100.8,32.6,100.3,32.6z"/>
</g>
<g>
	
		<linearGradient id="SVGID_5_" gradientUnits="userSpaceOnUse" x1="192.2" y1="-161.1" x2="192.2" y2="52.9" gradientTransform="matrix(0.2549 0 0 -0.2549 11.4502 26.7597)">
		<stop  offset="4.901961e-003" style="stop-color:#FAA436"/>
		<stop  offset="1" style="stop-color:#F26739"/>
	</linearGradient>
	
		<linearGradient id="SVGID_6_" gradientUnits="userSpaceOnUse" x1="192.2" y1="-162.1" x2="192.2" y2="53.9" gradientTransform="matrix(0.2549 0 0 -0.2549 11.4502 26.7597)">
		<stop  offset="4.901961e-003" style="stop-color:#FAA436"/>
		<stop  offset="1" style="stop-color:#F26739"/>
	</linearGradient>
	<path fill="url(#SVGID_5_)" stroke="url(#SVGID_6_)" stroke-width="2" stroke-miterlimit="10" d="M60.4,67.8
		c-15,0-27.3-12.2-27.3-27.3s12.2-27.3,27.3-27.3s27.3,12.2,27.3,27.3S75.5,67.8,60.4,67.8z M60.4,15.6c-13.7,0-24.9,11.2-24.9,24.9
		s11.2,24.9,24.9,24.9s24.9-11.2,24.9-24.9C85.4,26.8,74.2,15.6,60.4,15.6z"/>
</g>
<g>
	
		<linearGradient id="SVGID_7_" gradientUnits="userSpaceOnUse" x1="193.8669" y1="-109.6" x2="193.8669" y2="-13.8663" gradientTransform="matrix(0.2549 0 0 -0.2549 11.4502 26.7597)">
		<stop  offset="4.901961e-003" style="stop-color:#FAA436"/>
		<stop  offset="1" style="stop-color:#F26739"/>
	</linearGradient>
	
		<linearGradient id="SVGID_8_" gradientUnits="userSpaceOnUse" x1="193.8669" y1="-110.35" x2="193.8669" y2="-13.1163" gradientTransform="matrix(0.2549 0 0 -0.2549 11.4502 26.7597)">
		<stop  offset="4.901961e-003" style="stop-color:#FAA436"/>
		<stop  offset="1" style="stop-color:#F26739"/>
	</linearGradient>
	<path fill="url(#SVGID_7_)" stroke="url(#SVGID_8_)" stroke-width="1.5" stroke-miterlimit="10" d="M57,54.7
		c-0.6,0-1.2-0.3-1.7-0.7L47,45.7c-0.9-0.9-0.9-2.4,0-3.4c0.9-0.9,2.4-0.9,3.4,0l6.4,6.4l14.3-17.6c0.8-1,2.3-1.2,3.4-0.3
		c1,0.8,1.2,2.3,0.3,3.4l-16,19.6c-0.4,0.5-1.1,0.8-1.7,0.9C57.1,54.7,57,54.7,57,54.7z"/>
</g>
</svg>
