<?xml version="1.0" encoding="utf-8"?>
<!-- Generator: Adobe Illustrator 17.1.0, SVG Export Plug-In . SVG Version: 6.00 Build 0)  -->
<!DOCTYPE svg PUBLIC "-//W3C//DTD SVG 1.1//EN" "http://www.w3.org/Graphics/SVG/1.1/DTD/svg11.dtd">
<svg version="1.1" id="Layer_1" xmlns="http://www.w3.org/2000/svg" xmlns:xlink="http://www.w3.org/1999/xlink" x="0px" y="0px"
	 viewBox="0 0 294 384" enable-background="new 0 0 294 384" xml:space="preserve">
<g>
	<g>
		<linearGradient id="SVGID_1_" gradientUnits="userSpaceOnUse" x1="77.1048" y1="383.0006" x2="77.1048" y2="2.002">
			<stop  offset="0" style="stop-color:#FAA437"/>
			<stop  offset="1" style="stop-color:#F2673A"/>
		</linearGradient>
		<path fill="url(#SVGID_1_)" d="M108.8,237.7V135.4c38-17.3,54.9-62.1,37.6-100.1c-6-13.2-15.7-24.4-27.8-32.3
			c-2.9-1.9-6.9-1.1-8.8,1.9c-0.7,1-1,2.2-1,3.5v54.3L77.1,78.4L45.4,62.6V8.3c0-3.5-2.8-6.3-6.3-6.3c-1.2,0-2.4,0.4-3.5,1
			C0.5,25.7-9.6,72.5,13.1,107.6c7.9,12.2,19.1,21.8,32.3,27.8v102.3C18.3,249.9,0.9,276.9,1,306.6c-0.2,42,33.8,76.2,75.8,76.4
			s76.2-33.8,76.4-75.8C153.3,277.3,135.9,250.2,108.8,237.7z M136.2,330c-12.7,32.6-49.5,48.7-82.1,36s-48.7-49.5-36-82.1
			c6.4-16.5,19.5-29.6,36-36c2.4-0.9,4-3.3,4-5.9V131.2c0-2.6-1.6-5-4-5.9C21.6,112.8,5.4,76.4,17.9,44c3.3-8.5,8.3-16.2,14.8-22.5
			v45.1c0,2.4,1.4,4.6,3.5,5.7l38,19c1.8,0.9,3.9,0.9,5.7,0l38-19c2.2-1.1,3.5-3.3,3.5-5.7V21.5c24.9,24.3,25.4,64.1,1.2,89
			c-6.3,6.5-14,11.6-22.5,14.8c-2.4,0.9-4,3.3-4,5.9v110.7c0,2.6,1.6,5,4,5.9C132.8,260.6,148.9,297.4,136.2,330z"/>
	</g>
</g>
<g>
	<g>
		<linearGradient id="SVGID_2_" gradientUnits="userSpaceOnUse" x1="77.1002" y1="350.8723" x2="77.1002" y2="262.3448">
			<stop  offset="0" style="stop-color:#FAA437"/>
			<stop  offset="1" style="stop-color:#F2673A"/>
		</linearGradient>
		<path fill="url(#SVGID_2_)" d="M127,303.4l-22.2-37.9c-1.1-2-3.2-3.2-5.5-3.2H54.9c-2.3,0-4.3,1.2-5.5,3.2l-22.2,37.9
			c-1.2,2-1.2,4.4,0,6.4l22.2,37.9c1.1,1.9,3.2,3.1,5.5,3.1h44.4c2.3,0,4.3-1.2,5.5-3.1l22.2-37.9
			C128.1,307.8,128.1,305.4,127,303.4z M95.7,338.2H58.5l-18.5-31.5l18.5-31.6l37.1,0l18.5,31.6L95.7,338.2z"/>
	</g>
</g>
<g>
	<g>
		<linearGradient id="SVGID_3_" gradientUnits="userSpaceOnUse" x1="77.0999" y1="243.4738" x2="77.0999" y2="129.7026">
			<stop  offset="0" style="stop-color:#FAA437"/>
			<stop  offset="1" style="stop-color:#F2673A"/>
		</linearGradient>
		<path fill="url(#SVGID_3_)" d="M77.1,129.7c-3.5,0-6.3,2.8-6.3,6.3v101.1c0,3.5,2.8,6.3,6.3,6.3c3.5,0,6.3-2.8,6.3-6.3V136
			C83.4,132.5,80.6,129.7,77.1,129.7z"/>
	</g>
</g>
<g>
	<g>
		<linearGradient id="SVGID_4_" gradientUnits="userSpaceOnUse" x1="248.3084" y1="382.4634" x2="248.3084" y2="2">
			<stop  offset="0" style="stop-color:#FAA437"/>
			<stop  offset="1" style="stop-color:#F2673A"/>
		</linearGradient>
		<path fill="url(#SVGID_4_)" d="M292.7,211.3v-19c0-3.5-2.8-6.3-6.3-6.3h-19V60.6l5.7-11.3c0.6-1.2,0.8-2.6,0.6-3.9l-6.3-38
			C266.8,4.2,264.1,2,261,2h-25.4c-3.1,0-5.7,2.2-6.3,5.3l-6.3,38c-0.2,1.3,0,2.7,0.6,3.9l5.7,11.3v125.3h-19.1
			c-3.5,0-6.3,2.8-6.3,6.3v19c0.1,1.8,0.8,3.4,2.1,4.7c2.1,2.1,3.3,5,3.3,8c0,3.1-1.3,6.1-3.5,8.2c-1.2,1.2-1.9,2.8-1.9,4.5v101.5
			c0,24.5,19.9,44.4,44.4,44.4c24.5,0,44.4-19.9,44.4-44.4V236.6c-0.1-1.8-0.8-3.4-2.1-4.7c-2.1-2.1-3.3-5-3.3-8
			c0-3.1,1.3-6.1,3.5-8.2C292,214.5,292.7,212.9,292.7,211.3z M241,14.7h14.6l5.1,30.7l-5.4,10.8c-0.4,0.9-0.7,1.9-0.7,2.8v126.8
			H242V59.1c0-1-0.2-2-0.6-2.8l-5.5-10.8L241,14.7z M280,208.8c-7.1,8.8-7.1,21.4,0,30.2v99.1c0,17.5-14.2,31.7-31.7,31.7
			s-31.7-14.2-31.7-31.7v-99c7.1-8.8,7.1-21.4,0-30.2v-10.3H280V208.8z"/>
	</g>
</g>
<g>
	<g>
		<linearGradient id="SVGID_5_" gradientUnits="userSpaceOnUse" x1="235.6263" y1="344.4171" x2="235.6263" y2="249.3013">
			<stop  offset="0" style="stop-color:#FAA437"/>
			<stop  offset="1" style="stop-color:#F2673A"/>
		</linearGradient>
		<path fill="url(#SVGID_5_)" d="M235.6,249.3c-3.5,0-6.3,2.8-6.3,6.3v82.4c0,3.5,2.8,6.3,6.3,6.3s6.3-2.8,6.3-6.3v-82.4
			C242,252.1,239.1,249.3,235.6,249.3z"/>
	</g>
</g>
<g>
	<g>
		<linearGradient id="SVGID_6_" gradientUnits="userSpaceOnUse" x1="260.9905" y1="344.4171" x2="260.9905" y2="249.3013">
			<stop  offset="0" style="stop-color:#FAA437"/>
			<stop  offset="1" style="stop-color:#F2673A"/>
		</linearGradient>
		<path fill="url(#SVGID_6_)" d="M261,249.3c-3.5,0-6.3,2.8-6.3,6.3v82.4c0,3.5,2.8,6.3,6.3,6.3c3.5,0,6.3-2.8,6.3-6.3v-82.4
			C267.3,252.1,264.5,249.3,261,249.3z"/>
	</g>
</g>
</svg>
